<svg width="120" height="68" viewBox="0 0 120 68" fill="none" xmlns="http://www.w3.org/2000/svg">
<g style="mix-blend-mode:multiply" opacity="0.7">
<path d="M35.1822 38.7522C34.9422 38.861 34.7081 38.9823 34.4809 39.1154C33.1319 39.9554 31.9227 40.9981 30.8965 42.2063C32.2913 40.9545 33.7251 39.8186 35.1822 38.7522Z" fill="#F0D2AA"/>
</g>
<path d="M55.1841 39.0305C55.4957 39.3242 56.0646 39.9578 55.4957 41.511C55.1964 41.1776 55.0063 40.7618 54.9506 40.3188C54.895 39.8759 54.9764 39.4266 55.1841 39.0305Z" fill="#2A5436"/>
<path d="M54.4288 38.7522C54.4911 39.1772 54.5535 40.0195 53.1431 40.9004C53.1117 40.4551 53.2179 40.011 53.4477 39.6272C53.6774 39.2434 54.0196 38.9381 54.4288 38.7522Z" fill="#2A5436"/>
<path d="M53.3764 37.794C53.2439 38.1958 52.9244 38.984 51.2725 39.1695C51.4404 38.7552 51.7318 38.4016 52.1077 38.1558C52.4836 37.91 52.9262 37.7838 53.3764 37.794Z" fill="#2A5436"/>
<path d="M57.0468 40.1277C57.3741 40.4059 57.9819 40.9931 57.5221 42.5772C57.1996 42.2663 56.981 41.8646 56.896 41.4266C56.811 40.9885 56.8637 40.5351 57.0468 40.1277Z" fill="#2A5436"/>
<path d="M54.4597 40.4136C54.6233 40.8077 54.8961 41.6113 53.7662 42.8168C53.6203 42.3939 53.6086 41.9369 53.7326 41.5072C53.8566 41.0776 54.1103 40.6959 54.4597 40.4136Z" fill="#2A5436"/>
<path d="M57.2029 38.0878C57.0003 37.7092 56.6652 36.9287 57.7094 35.646C57.8847 36.0559 57.9302 36.509 57.8397 36.9451C57.7493 37.3813 57.5271 37.7798 57.2029 38.0878Z" fill="#2A5436"/>
<path d="M57.6621 38.7832C57.7556 38.366 57.9972 37.5469 59.618 37.2378C59.4871 37.6609 59.2303 38.035 58.8813 38.3108C58.5322 38.5866 58.1072 38.7513 57.6621 38.7832Z" fill="#2A5436"/>
<path d="M58.4414 39.3009C58.7063 38.9686 59.2752 38.335 60.896 38.7291C60.5942 39.0608 60.1974 39.2934 59.7588 39.3955C59.3202 39.4977 58.8606 39.4647 58.4414 39.3009Z" fill="#2A5436"/>
<path d="M63.81 35.2596C63.6932 34.85 63.5295 34.0155 64.8152 32.9414C64.9086 33.3834 64.8621 33.8432 64.6822 34.2581C64.5023 34.673 64.1978 35.0227 63.81 35.2596Z" fill="#2A5436"/>
<path d="M64.3164 35.8777C64.48 35.4837 64.8619 34.7264 66.5294 34.6877C66.3279 35.087 66.0076 35.4153 65.6118 35.6282C65.216 35.841 64.7638 35.9281 64.3164 35.8777Z" fill="#2A5436"/>
<path d="M64.6133 36.9364C64.9328 36.6505 65.6107 36.1636 67.1302 36.8127C66.7731 37.0848 66.3409 37.2424 65.8912 37.2645C65.4415 37.2866 64.9957 37.1721 64.6133 36.9364Z" fill="#2A5436"/>
<path d="M62.7737 33.3741C62.6335 32.9723 62.4153 32.1532 63.6231 31.0559C63.7331 31.4822 63.7109 31.9315 63.5594 32.3451C63.4079 32.7587 63.1341 33.1173 62.7737 33.3741Z" fill="#2A5436"/>
<path d="M65.1504 34.4406C65.2049 34.0156 65.3842 33.1887 66.9816 32.7251C66.8885 33.1618 66.6633 33.5599 66.3361 33.8664C66.009 34.1729 65.5953 34.3732 65.1504 34.4406Z" fill="#2A5436"/>
<path d="M65.4541 29.5953C65.7892 29.3249 66.4827 28.8226 67.9788 29.5953C67.6086 29.8516 67.1679 29.9891 66.7164 29.9891C66.2649 29.9891 65.8243 29.8516 65.4541 29.5953Z" fill="#2A5436"/>
<path d="M65.2363 30.6695C65.6493 30.569 66.4909 30.4222 67.5194 31.7281C67.0755 31.8019 66.6195 31.7401 66.2118 31.5511C65.804 31.362 65.4639 31.0546 65.2363 30.6695Z" fill="#2A5436"/>
<path d="M66.3037 27.8954C66.5531 27.5554 67.0829 26.8986 68.7271 27.2309C68.4395 27.5733 68.0534 27.8205 67.6203 27.9392C67.1872 28.058 66.7278 28.0427 66.3037 27.8954Z" fill="#2A5436"/>
<path d="M58.4417 32.3851C58.0988 32.6401 57.3819 33.1037 55.9248 32.3156C56.3014 32.0711 56.7443 31.9467 57.1942 31.9591C57.6442 31.9715 58.0795 32.1202 58.4417 32.3851Z" fill="#2A5436"/>
<path d="M59.4547 31.96C59.0183 31.96 58.169 31.96 57.4287 30.4763C57.8782 30.4911 58.3125 30.6409 58.6743 30.9058C59.036 31.1707 59.3082 31.5383 59.4547 31.96Z" fill="#2A5436"/>
<path d="M60.1484 31.4578C59.899 31.1024 59.4705 30.3683 60.3354 28.9619C60.5623 29.3479 60.6659 29.7931 60.6325 30.2387C60.5991 30.6842 60.4303 31.1093 60.1484 31.4578Z" fill="#2A5436"/>
<path d="M56.7122 37.3536C56.3381 37.1372 55.629 36.6659 55.7927 35.0354C56.1648 35.2838 56.452 35.6386 56.6162 36.0526C56.7805 36.4666 56.8139 36.9203 56.7122 37.3536Z" fill="#2A5436"/>
<path d="M59.7666 37.7632C59.9458 37.3769 60.3588 36.6351 62.0263 36.6582C61.8077 37.0485 61.4743 37.3634 61.0705 37.5608C60.6668 37.7582 60.2119 37.8289 59.7666 37.7632Z" fill="#2A5436"/>
<path d="M60.1328 34.6414C60.2731 34.2396 60.6159 33.4592 62.2757 33.3201C62.0959 33.7299 61.7946 34.0759 61.4119 34.3119C61.0291 34.5479 60.583 34.6628 60.1328 34.6414Z" fill="#2A5436"/>
<path d="M60.6934 40.2514C60.9973 39.9501 61.644 39.3937 63.1947 39.9887C62.8544 40.2801 62.4325 40.4614 61.9855 40.5084C61.5384 40.5553 61.0876 40.4657 60.6934 40.2514Z" fill="#2A5436"/>
<path d="M60.335 40.6763C60.7557 40.7613 61.5817 40.9931 61.9402 42.6004C61.5065 42.4805 61.1203 42.2318 60.8334 41.8879C60.5464 41.5439 60.3725 41.1211 60.335 40.6763Z" fill="#2A5436"/>
<path d="M61.4883 38.7445C61.7065 38.3736 62.1896 37.6704 63.8259 37.8481C63.5726 38.2136 63.2139 38.4946 62.7968 38.6546C62.3797 38.8145 61.9236 38.8458 61.4883 38.7445Z" fill="#2A5436"/>
<path d="M61.2861 25.2372C61.7069 25.1368 62.5563 25.0131 63.5537 26.3268C63.1088 26.3954 62.6534 26.3279 62.2483 26.1333C61.8431 25.9386 61.5075 25.626 61.2861 25.2372Z" fill="#2A5436"/>
<path d="M60.6389 25.7087C61.0285 25.8865 61.7765 26.3037 61.7454 27.9496C61.3533 27.7317 61.0374 27.4006 60.8397 27.0003C60.6421 26.6 60.572 26.1495 60.6389 25.7087Z" fill="#2A5436"/>
<path d="M59.5633 25.9636C59.836 26.2882 60.3425 26.9836 59.5633 28.4595C59.3065 28.0932 59.1689 27.6577 59.1689 27.2116C59.1689 26.7654 59.3065 26.33 59.5633 25.9636Z" fill="#2A5436"/>
<path d="M63.2334 24.2946C63.6386 24.1709 64.4802 23.9855 65.5711 25.2296C65.1317 25.3304 64.6718 25.2948 64.2536 25.1275C63.8354 24.9602 63.4792 24.6694 63.2334 24.2946Z" fill="#2A5436"/>
<path d="M64.6758 27.5632C64.7303 27.1382 64.9018 26.3114 66.4914 25.8323C66.4031 26.2701 66.1818 26.6706 65.8573 26.98C65.5327 27.2895 65.1204 27.493 64.6758 27.5632Z" fill="#2A5436"/>
<path d="M62.0576 26.5972C62.4784 26.6744 63.3122 26.8831 63.7096 28.4826C63.273 28.3732 62.8808 28.1338 62.5854 27.7968C62.2901 27.4597 62.1059 27.0411 62.0576 26.5972Z" fill="#2A5436"/>
<path d="M60.2337 24.0704C59.8052 24.0163 58.9636 23.8463 58.4883 22.2622C58.9299 22.3523 59.3335 22.5735 59.6452 22.8965C59.957 23.2195 60.1623 23.6289 60.2337 24.0704Z" fill="#2A5436"/>
<path d="M61.2778 23.9082C60.9739 23.6068 60.4206 22.9655 61.0206 21.4277C61.3143 21.7654 61.4964 22.1843 61.5423 22.6279C61.5883 23.0714 61.496 23.5183 61.2778 23.9082Z" fill="#2A5436"/>
<path d="M62.1659 23.5218C62.0257 23.12 61.8075 22.3009 63.0231 21.2036C63.1312 21.6307 63.1073 22.0802 62.9545 22.4936C62.8016 22.907 62.5268 23.2653 62.1659 23.5218Z" fill="#2A5436"/>
<path d="M56.0101 16.6213C55.6906 16.3353 55.0906 15.7326 55.5893 14.1562C55.9041 14.4758 56.1131 14.883 56.1882 15.3235C56.2634 15.764 56.2013 16.2167 56.0101 16.6213Z" fill="#2A5436"/>
<path d="M54.3036 20.4309C54.2178 20.8559 53.9919 21.6673 52.3711 22.0305C52.4912 21.6007 52.7404 21.2174 53.0857 20.9317C53.4309 20.6459 53.8557 20.4712 54.3036 20.4309Z" fill="#2A5436"/>
<path d="M54.7952 19.4494C54.4835 19.7431 53.8212 20.284 52.2861 19.6581C52.6334 19.3745 53.0596 19.2027 53.5078 19.1654C53.9561 19.1281 54.4052 19.2272 54.7952 19.4494Z" fill="#2A5436"/>
<path d="M54.9823 18.615C54.5615 18.5145 53.7511 18.2441 53.4238 16.6213C53.8582 16.7553 54.2407 17.0184 54.5194 17.375C54.7981 17.7315 54.9597 18.1644 54.9823 18.615Z" fill="#2A5436"/>
<path d="M58.7451 24.1323C58.3166 24.1323 57.4672 23.9932 56.8828 22.4478C57.3292 22.5072 57.7467 22.7004 58.0795 23.0014C58.4123 23.3024 58.6445 23.6969 58.7451 24.1323Z" fill="#2A5436"/>
<path d="M60.0783 22.8572C59.7121 22.6409 59.003 22.1618 59.19 20.5391C59.559 20.7893 59.8419 21.1456 60.0007 21.56C60.1595 21.9744 60.1866 22.4271 60.0783 22.8572Z" fill="#2A5436"/>
<path d="M47.4858 28.0654C47.0962 28.2586 46.3014 28.5754 45.0234 27.5168C45.4417 27.3507 45.9009 27.3142 46.3405 27.4122C46.7801 27.5101 47.1794 27.7379 47.4858 28.0654Z" fill="#2A5436"/>
<path d="M48.9355 29.1318C48.7484 29.5104 48.3121 30.2445 46.6523 30.175C46.8796 29.7904 47.2204 29.4842 47.6286 29.2976C48.0369 29.1111 48.493 29.0532 48.9355 29.1318Z" fill="#2A5436"/>
<path d="M48.2183 27.3468C47.7897 27.3468 46.9326 27.3468 46.1768 25.8787C46.6273 25.8881 47.0642 26.0338 47.4291 26.2961C47.7939 26.5585 48.0693 26.9251 48.2183 27.3468Z" fill="#2A5436"/>
<path d="M42.7016 31.4731C42.312 31.6586 41.5172 31.9754 40.2393 30.9168C40.6581 30.7505 41.1181 30.7147 41.5579 30.8141C41.9978 30.9135 42.3967 31.1433 42.7016 31.4731Z" fill="#2A5436"/>
<path d="M42.5845 30.3681C42.156 30.3681 41.2988 30.3681 40.543 28.8999C40.9935 28.9094 41.4304 29.055 41.7953 29.3174C42.1601 29.5798 42.4355 29.9463 42.5845 30.3681Z" fill="#2A5436"/>
<path d="M50.8519 27.7331C50.4311 27.679 49.5896 27.509 49.1143 25.9326C49.5543 26.0215 49.9565 26.2416 50.267 26.5634C50.5776 26.8851 50.7816 27.2932 50.8519 27.7331Z" fill="#2A5436"/>
<path d="M50.7043 26.5201C50.3381 26.3037 49.629 25.8246 49.816 24.2019C50.1825 24.4544 50.4635 24.8109 50.622 25.2246C50.7806 25.6383 50.8092 26.0899 50.7043 26.5201Z" fill="#2A5436"/>
<path d="M36.9662 30.6772C36.5376 30.6231 35.7038 30.4531 35.2207 28.8767C35.6622 28.9642 36.0661 29.1837 36.3781 29.5055C36.6901 29.8274 36.8953 30.2362 36.9662 30.6772Z" fill="#2A5436"/>
<path d="M36.8179 29.4642C36.4438 29.2478 35.7426 28.7687 35.9296 27.146C36.2961 27.3985 36.577 27.755 36.7356 28.1687C36.8941 28.5824 36.9228 29.034 36.8179 29.4642Z" fill="#2A5436"/>
<path d="M29.6102 33.8222C30.0076 33.66 30.7712 33.2813 30.818 31.6277C30.4153 31.8281 30.084 32.1456 29.8681 32.5377C29.6523 32.9299 29.5623 33.378 29.6102 33.8222Z" fill="#2A5436"/>
<path d="M28.8307 32.2692C29.1346 31.9601 29.6878 31.311 29.0723 29.781C28.7824 30.1226 28.6041 30.5435 28.561 30.9878C28.5179 31.4322 28.6119 31.879 28.8307 32.2692Z" fill="#2A5436"/>
<path d="M56.642 21.6827C56.3771 21.3427 55.9095 20.6395 56.6965 19.1868C56.9453 19.5586 57.0735 19.997 57.0637 20.4432C57.054 20.8894 56.9068 21.3219 56.642 21.6827Z" fill="#2A5436"/>
<path d="M57.1719 18.924C57.0862 18.5068 56.9693 17.6722 58.3173 16.7063C58.3779 17.1477 58.3006 17.597 58.0958 17.9935C57.891 18.3901 57.5685 18.7148 57.1719 18.924Z" fill="#2A5436"/>
<path d="M58.0205 19.6272C58.1218 19.2176 58.3867 18.4063 60.0231 18.1204C59.8838 18.5439 59.6174 18.9152 59.2595 19.1845C58.9016 19.4537 58.4693 19.6082 58.0205 19.6272Z" fill="#2A5436"/>
<path d="M57.0388 17.2704C56.844 16.8918 56.5167 16.1036 57.5687 14.8286C57.7423 15.2406 57.7846 15.6954 57.6899 16.1319C57.5951 16.5684 57.3679 16.9657 57.0388 17.2704Z" fill="#2A5436"/>
<path d="M57.5062 12.7732C57.1555 13.0128 56.4153 13.4378 54.9971 12.58C55.3852 12.3546 55.8336 12.2523 56.2821 12.2868C56.7306 12.3214 57.1577 12.4911 57.5062 12.7732Z" fill="#2A5436"/>
<path d="M54.584 10.285C54.6385 9.86769 54.8255 9.03314 56.4229 8.58496C56.3276 9.02036 56.1003 9.41648 55.7717 9.72029C55.443 10.0241 55.0286 10.2211 54.584 10.285Z" fill="#2A5436"/>
<path d="M55.4336 10.7563C55.6674 10.4008 56.2128 9.73626 57.8336 9.98353C57.5621 10.3412 57.186 10.6073 56.7566 10.7456C56.3272 10.8838 55.8652 10.8876 55.4336 10.7563Z" fill="#2A5436"/>
<path d="M23.3223 41.1785C23.3846 40.7535 23.5716 39.9267 25.169 39.4785C25.0731 39.915 24.8448 40.3119 24.5146 40.6158C24.1844 40.9198 23.7683 41.1161 23.3223 41.1785Z" fill="#2A5436"/>
<path d="M27.0077 41.7892C26.6103 41.6114 25.8545 41.2174 25.8545 39.5637C26.2517 39.7748 26.5748 40.1008 26.7808 40.4983C26.9868 40.8958 27.0659 41.346 27.0077 41.7892Z" fill="#2A5436"/>
<path d="M50.2749 10.0919C49.8698 9.94505 49.0905 9.59733 48.9814 7.95142C49.3914 8.13481 49.7351 8.43814 49.9663 8.82072C50.1975 9.20331 50.3052 9.64685 50.2749 10.0919Z" fill="#2A5436"/>
<path d="M50.9766 13.6387C51.2727 13.9478 51.826 14.5969 51.2026 16.1269C50.9152 15.7836 50.7397 15.3619 50.6994 14.9176C50.659 14.4733 50.7557 14.0273 50.9766 13.6387Z" fill="#2A5436"/>
<path d="M50.1191 11.5908C49.9321 11.9772 49.5113 12.7113 47.8516 12.6804C48.0729 12.2916 48.4085 11.979 48.8137 11.7843C49.2188 11.5896 49.6742 11.5221 50.1191 11.5908Z" fill="#2A5436"/>
<path d="M49.9866 10.7563C49.558 10.8104 48.7009 10.849 47.8438 9.4349C48.2939 9.41349 48.7401 9.52843 49.1228 9.76445C49.5056 10.0005 49.8068 10.3464 49.9866 10.7563Z" fill="#2A5436"/>
<path d="M54.9978 13.5536C54.5848 13.685 53.7589 13.8859 52.6602 12.6573C53.0955 12.5537 53.5523 12.584 53.9699 12.7441C54.3874 12.9042 54.746 13.1866 54.9978 13.5536Z" fill="#2A5436"/>
<path d="M55.4652 11.761C55.0912 11.9696 54.312 12.3251 52.9795 11.3437C53.3874 11.1541 53.8439 11.0925 54.2881 11.167C54.7323 11.2416 55.143 11.4488 55.4652 11.761Z" fill="#2A5436"/>
<path d="M52.2541 13.1363C51.8879 12.9122 51.1866 12.4177 51.397 10.8181C51.7571 11.0754 52.0312 11.4337 52.184 11.8469C52.3368 12.2601 52.3612 12.7092 52.2541 13.1363Z" fill="#2A5436"/>
<path d="M51.1016 10.1924C51.1016 9.76737 51.1016 8.91737 52.66 8.19873C52.6385 8.64964 52.4774 9.08301 52.1985 9.43978C51.9196 9.79655 51.5366 10.0594 51.1016 10.1924Z" fill="#2A5436"/>
<path d="M52.5037 10.8181C52.4491 10.3931 52.4024 9.54312 53.8205 8.69312C53.8445 9.13801 53.7313 9.5796 53.4961 9.95917C53.2609 10.3388 52.9147 10.6383 52.5037 10.8181Z" fill="#2A5436"/>
<path d="M51.0078 9.18782C50.6962 8.89418 50.1039 8.28372 50.6182 6.71509C50.9295 7.03876 51.1337 7.44904 51.2033 7.89098C51.273 8.33291 51.2048 8.78539 51.0078 9.18782Z" fill="#2A5436"/>
<path d="M46.223 7.42578C46.5035 7.75033 47.0022 8.43805 46.223 9.92169C45.9684 9.55451 45.832 9.11937 45.832 8.67374C45.832 8.22811 45.9684 7.79296 46.223 7.42578Z" fill="#2A5436"/>
<path d="M44.1354 7.98999C44.1354 8.41499 44.1821 9.25726 42.7328 10.0609C42.7247 9.61484 42.8548 9.17707 43.1057 8.80671C43.3565 8.43636 43.7159 8.15128 44.1354 7.98999Z" fill="#2A5436"/>
<path d="M43.9866 6.62237C43.6438 6.8851 42.9269 7.34101 41.4697 6.5451C41.8471 6.3017 42.2905 6.17864 42.7404 6.19245C43.1903 6.20627 43.6252 6.35629 43.9866 6.62237Z" fill="#2A5436"/>
<path d="M42.4281 2.68896C42.4281 3.11396 42.2645 3.94851 40.7061 4.50487C40.7724 4.06428 40.9729 3.65429 41.2806 3.32977C41.5884 3.00525 41.9887 2.78167 42.4281 2.68896Z" fill="#2A5436"/>
<path d="M38.6417 3.39223C38.3456 3.08314 37.8157 2.4186 38.4624 0.904053C38.7445 1.25122 38.9129 1.6756 38.9449 2.12032C38.9769 2.56503 38.8711 3.00883 38.6417 3.39223Z" fill="#2A5436"/>
<path d="M35.7894 6.59904C35.4232 6.81541 34.6595 7.20177 33.2959 6.25132C33.6979 6.05107 34.1519 5.97708 34.5974 6.03921C35.0429 6.10133 35.4587 6.29662 35.7894 6.59904Z" fill="#2A5436"/>
<path d="M40.0674 7.10124C40.496 7.10124 41.3531 7.05488 42.1635 8.49215C41.7128 8.49957 41.2707 8.37036 40.8961 8.12179C40.5215 7.87323 40.2324 7.51717 40.0674 7.10124Z" fill="#2A5436"/>
<path d="M37.5348 7.92041C37.4257 8.32996 37.1608 9.13359 35.5244 9.42723C35.6642 9.00249 35.9318 8.63038 36.2912 8.36099C36.6506 8.0916 37.0846 7.93784 37.5348 7.92041Z" fill="#2A5436"/>
<path d="M36.1326 7.24037C35.9066 7.60355 35.4001 8.29128 33.7949 8.05946C34.0576 7.7071 34.4206 7.44078 34.8372 7.2948C35.2538 7.14882 35.705 7.12986 36.1326 7.24037Z" fill="#2A5436"/>
<path d="M41.4699 5.12322C41.3141 5.51731 40.9478 6.28231 39.2881 6.36731C39.4804 5.964 39.7925 5.62866 40.1824 5.40629C40.5724 5.18391 41.0217 5.08514 41.4699 5.12322Z" fill="#2A5436"/>
<path d="M45.0783 10.2386C44.9225 10.6405 44.5562 11.4055 42.8965 11.4905C43.0876 11.0857 43.3992 10.7488 43.7893 10.5249C44.1793 10.3011 44.6292 10.2012 45.0783 10.2386Z" fill="#2A5436"/>
<path d="M40.3476 3.63184C40.2775 4.04911 40.0749 4.87593 38.4697 5.28547C38.5749 4.85259 38.8112 4.46204 39.147 4.16639C39.4827 3.87075 39.9018 3.68419 40.3476 3.63184Z" fill="#2A5436"/>
<path d="M39.4205 6.95458C39.0154 7.1014 38.1894 7.33321 37.0361 6.18185C37.4657 6.05513 37.924 6.0612 38.3499 6.19925C38.7759 6.33729 39.1494 6.60077 39.4205 6.95458Z" fill="#2A5436"/>
<path d="M32.0411 0.641357C32.0411 1.06636 32.0411 1.91636 30.584 2.68136C30.5875 2.2344 30.7291 1.79925 30.9896 1.43452C31.2501 1.06978 31.6171 0.792966 32.0411 0.641357Z" fill="#2A5436"/>
<path d="M17.9609 10.6791C17.766 11.0577 17.3375 11.7918 15.6777 11.73C15.9047 11.3447 16.2451 11.0376 16.6532 10.8497C17.0613 10.6619 17.5176 10.6023 17.9609 10.6791Z" fill="#2A5436"/>
<path d="M30.2803 4.14947C30.4829 3.77856 30.9426 3.05992 32.6179 3.18356C32.3748 3.56241 32.0202 3.85816 31.6022 4.03089C31.1842 4.20362 30.7228 4.245 30.2803 4.14947Z" fill="#2A5436"/>
<path d="M29.2755 0C29.5249 0.347727 29.9768 1.07409 29.1353 2.49591C28.8997 2.11517 28.787 1.67221 28.812 1.22621C28.8371 0.780222 28.9988 0.352433 29.2755 0Z" fill="#2A5436"/>
<path d="M26.4385 1.22095C26.867 1.29049 27.7008 1.47595 28.1372 3.06777C27.6986 2.96694 27.3014 2.73633 26.998 2.40652C26.6946 2.0767 26.4995 1.66324 26.4385 1.22095Z" fill="#2A5436"/>
<path d="M27.8259 3.73999C27.7246 4.15726 27.4674 4.96863 25.8311 5.28544C25.9652 4.85702 26.2282 4.47946 26.5847 4.20327C26.9412 3.92708 27.3742 3.76545 27.8259 3.73999Z" fill="#2A5436"/>
<path d="M19.8151 3.22998C20.0255 3.60089 20.3995 4.36589 19.4177 5.69498C19.2224 5.29297 19.1558 4.84135 19.2269 4.40072C19.2979 3.9601 19.5032 3.55158 19.8151 3.22998Z" fill="#2A5436"/>
<path d="M18.8804 6.72267C18.4518 6.72267 17.5947 6.72267 16.8232 5.2854C17.273 5.28833 17.7111 5.42759 18.0788 5.68449C18.4465 5.94139 18.7262 6.30365 18.8804 6.72267Z" fill="#2A5436"/>
<path d="M36.3896 6.01947C36.0467 5.76447 35.4 5.20038 35.774 3.60083C36.1121 3.89433 36.3521 4.28294 36.462 4.71498C36.572 5.14702 36.5467 5.60201 36.3896 6.01947Z" fill="#2A5436"/>
<path d="M37.7298 5.30866C37.3636 5.08457 36.6701 4.59002 36.8883 2.99048C37.2464 3.24899 37.518 3.60811 37.6681 4.0214C37.8181 4.43469 37.8396 4.88311 37.7298 5.30866Z" fill="#2A5436"/>
<path d="M35.5402 5.46316C35.1116 5.52497 34.2623 5.59452 33.3584 4.21906C33.8063 4.18319 34.2546 4.2829 34.6442 4.50502C35.0337 4.72715 35.3462 5.06124 35.5402 5.46316Z" fill="#2A5436"/>
<path d="M45.0469 14.2105C45.0469 13.7855 45.1404 12.9432 46.6754 12.3096C46.6317 12.7533 46.4523 13.1731 46.1613 13.5129C45.8702 13.8526 45.4814 14.096 45.0469 14.2105Z" fill="#2A5436"/>
<path d="M40.6678 12.5106C40.247 12.4024 39.4366 12.1474 39.1094 10.5247C39.5432 10.6572 39.9254 10.9189 40.2041 11.2741C40.4829 11.6293 40.6448 12.061 40.6678 12.5106Z" fill="#2A5436"/>
<path d="M37.3402 13.2753C36.9739 13.4917 36.2181 13.8858 34.8467 12.9508C35.2459 12.7453 35.699 12.6663 36.1449 12.7243C36.5908 12.7824 37.008 12.9747 37.3402 13.2753Z" fill="#2A5436"/>
<path d="M36.2497 14.5428C36.0237 14.8982 35.5172 15.5859 33.873 15.3541C34.1387 14.995 34.5087 14.7248 34.9334 14.5798C35.3581 14.4348 35.8173 14.4219 36.2497 14.5428Z" fill="#2A5436"/>
<path d="M51.6314 21.4585C51.2418 21.6363 50.4392 21.9222 49.2002 20.8249C49.6224 20.6735 50.0811 20.653 50.5153 20.7662C50.9495 20.8793 51.3388 21.1208 51.6314 21.4585Z" fill="#2A5436"/>
<path d="M47.1194 15.6633C46.7688 15.9106 46.0441 16.3588 44.6025 15.5319C44.9853 15.2962 45.4318 15.1824 45.8818 15.2059C46.3318 15.2294 46.7637 15.389 47.1194 15.6633Z" fill="#2A5436"/>
<path d="M42.522 19.2332C42.1246 19.0555 41.3766 18.6459 41.3999 17C41.7935 17.2152 42.1117 17.5441 42.3122 17.9431C42.5126 18.342 42.5858 18.792 42.522 19.2332Z" fill="#2A5436"/>
<path d="M41.3451 16.0032C41.2827 15.5859 41.2204 14.7359 42.623 13.855C42.6573 14.2997 42.5531 14.7442 42.3246 15.1283C42.0961 15.5125 41.7542 15.8178 41.3451 16.0032Z" fill="#2A5436"/>
<path d="M42.9976 16.0574C42.8963 15.6478 42.7483 14.8133 44.0652 13.801C44.1401 14.2402 44.078 14.6916 43.8873 15.0948C43.6965 15.498 43.3861 15.8339 42.9976 16.0574Z" fill="#2A5436"/>
<path d="M41.299 11.5213C40.9483 11.274 40.2938 10.7485 40.6289 9.11035C40.9748 9.39674 41.2243 9.78105 41.3441 10.2119C41.4639 10.6427 41.4481 11.0995 41.299 11.5213Z" fill="#2A5436"/>
<path d="M24.3042 9.27271C24.3587 9.69771 24.4211 10.54 23.0107 11.4209C22.981 10.975 23.0889 10.5306 23.3199 10.1469C23.551 9.76325 23.8942 9.45834 24.3042 9.27271Z" fill="#2A5436"/>
<path d="M23.3069 9.06409C22.9796 9.33455 22.2861 9.83682 20.79 9.11818C21.1539 8.85558 21.59 8.70965 22.0399 8.69998C22.4898 8.69031 22.9319 8.81737 23.3069 9.06409Z" fill="#2A5436"/>
<path d="M19.7295 6.12769C20.1425 6.25132 20.9373 6.55269 21.1477 8.19087C20.7279 8.03066 20.3673 7.74738 20.1139 7.37878C19.8605 7.01018 19.7265 6.57376 19.7295 6.12769Z" fill="#2A5436"/>
<path d="M20.0959 10.9186C19.9479 11.3204 19.5972 12.0932 17.9375 12.2091C18.123 11.8024 18.4288 11.4613 18.8142 11.2308C19.1997 11.0003 19.6467 10.8915 20.0959 10.9186Z" fill="#2A5436"/>
<path d="M18.9744 9.88312C18.5614 10.0145 17.7354 10.2231 16.6367 8.99448C17.0713 8.89123 17.5272 8.92086 17.9444 9.07948C18.3617 9.2381 18.7208 9.51826 18.9744 9.88312Z" fill="#2A5436"/>
<path d="M5.27539 12.4331C5.70396 12.4795 6.54552 12.6186 7.07539 14.1872C6.63086 14.1116 6.22024 13.903 5.89854 13.5895C5.57684 13.276 5.35942 12.8725 5.27539 12.4331Z" fill="#2A5436"/>
<path d="M5.90653 16.2273C5.58705 16.5132 4.90913 17 3.38965 16.3509C3.74667 16.0789 4.17889 15.9213 4.62861 15.8992C5.07833 15.8771 5.52414 15.9916 5.90653 16.2273Z" fill="#2A5436"/>
<path d="M9.07753 19.1018C9.28792 19.4727 9.65415 20.2377 8.67233 21.5668C8.47915 21.1638 8.41444 20.712 8.48684 20.2716C8.55923 19.8312 8.76529 19.4231 9.07753 19.1018Z" fill="#2A5436"/>
<path d="M11.751 13.9092C12.164 14.0174 12.9744 14.2878 13.2549 15.9183C12.8276 15.7752 12.4547 15.5061 12.1859 15.1471C11.9171 14.788 11.7654 14.3561 11.751 13.9092Z" fill="#2A5436"/>
<path d="M30.5459 19.2487C30.881 18.986 31.5901 18.476 33.0628 19.2487C32.6929 19.5022 32.254 19.6381 31.8043 19.6381C31.3547 19.6381 30.9157 19.5022 30.5459 19.2487Z" fill="#2A5436"/>
<path d="M16.6758 7.79676C17.0186 7.52631 17.7199 7.02403 19.2005 7.79676C18.829 8.04995 18.3889 8.18548 17.9381 8.18548C17.4874 8.18548 17.0472 8.04995 16.6758 7.79676Z" fill="#2A5436"/>
<path d="M10.4414 17.4019C10.8544 17.5178 11.6648 17.7959 11.9219 19.4264C11.4966 19.2786 11.127 19.0055 10.8624 18.6437C10.5978 18.2819 10.451 17.8487 10.4414 17.4019Z" fill="#2A5436"/>
<path d="M9.73212 18.7773C10.0906 19.0092 10.7685 19.5501 10.5113 21.1496C10.153 20.8802 9.88638 20.5085 9.7471 20.0845C9.60783 19.6605 9.6026 19.2044 9.73212 18.7773Z" fill="#2A5436"/>
<path d="M7.70668 13.4377C8.10408 13.6 8.87551 13.9787 8.92227 15.6246C8.51952 15.4258 8.18743 15.11 7.97026 14.7193C7.75309 14.3286 7.66114 13.8816 7.70668 13.4377Z" fill="#2A5436"/>
<path d="M20.6804 11.9773C20.7661 12.3946 20.883 13.2368 19.5428 14.2105C19.4804 13.7676 19.5559 13.3165 19.7592 12.9174C19.9626 12.5183 20.284 12.1903 20.6804 11.9773Z" fill="#2A5436"/>
<path d="M39.7402 19.6812C40.161 19.5885 41.0104 19.4649 42 20.7862C41.5546 20.853 41.0993 20.7828 40.6953 20.5853C40.2913 20.3877 39.958 20.0722 39.7402 19.6812Z" fill="#2A5436"/>
<path d="M40.2233 21.3042C40.5272 21.6056 41.0805 22.2547 40.4805 23.7847C40.1869 23.447 40.0048 23.0281 39.9588 22.5845C39.9128 22.1409 40.0051 21.6941 40.2233 21.3042Z" fill="#2A5436"/>
<path d="M39.7406 24.4336C39.3821 24.6731 38.6341 25.0827 37.2393 24.1863C37.632 23.97 38.0819 23.8777 38.5289 23.9219C38.9759 23.9661 39.3987 24.1446 39.7406 24.4336Z" fill="#2A5436"/>
<path d="M37.3096 21.335C37.7226 21.4509 38.5329 21.7368 38.7745 23.3672C38.3509 23.2164 37.9837 22.9411 37.722 22.578C37.4602 22.2149 37.3164 21.7812 37.3096 21.335Z" fill="#2A5436"/>
<path d="M36.8809 19.411C37.2861 19.2873 38.1276 19.1096 39.2185 20.3614C38.7776 20.4596 38.3169 20.4211 37.8988 20.2511C37.4807 20.0811 37.1254 19.7878 36.8809 19.411Z" fill="#2A5436"/>
<path d="M21.0385 33.4822C21.2177 33.8685 21.5138 34.6644 20.4229 35.9008C20.2658 35.4834 20.2405 35.0284 20.3505 34.5963C20.4605 34.1643 20.7004 33.7757 21.0385 33.4822Z" fill="#2A5436"/>
<path d="M10.5192 32.6091C10.2854 32.9645 9.73994 33.6368 8.12695 33.3818C8.39722 33.0247 8.7719 32.759 9.19997 32.6207C9.62804 32.4824 10.0887 32.4783 10.5192 32.6091Z" fill="#2A5436"/>
<path d="M21.8181 41.0627C21.5064 40.7691 20.9453 40.1277 21.5376 38.5823C21.8339 38.918 22.0196 39.3355 22.0697 39.7789C22.1199 40.2223 22.0321 40.6703 21.8181 41.0627Z" fill="#2A5436"/>
<path d="M17.9223 29.75C17.9223 30.175 17.7821 31.0173 16.2236 31.5968C16.2836 31.1541 16.4784 30.7401 16.7819 30.4101C17.0855 30.0801 17.4833 29.8498 17.9223 29.75Z" fill="#2A5436"/>
<path d="M20.3843 29.7346C20.5947 30.1055 20.9453 30.8783 19.9401 32.1919C19.7525 31.7863 19.6945 31.3335 19.7739 30.8942C19.8532 30.455 20.0662 30.0503 20.3843 29.7346Z" fill="#2A5436"/>
<path d="M56.6489 27.5786C56.4386 27.2077 56.0723 26.4427 57.0619 25.1213C57.2535 25.5239 57.3166 25.9749 57.2428 26.414C57.169 26.8531 56.9618 27.2594 56.6489 27.5786Z" fill="#2A5436"/>
<path d="M54.132 26.3191C54.5294 26.4891 55.2852 26.8832 55.3008 28.5291C54.9034 28.3212 54.579 27.9987 54.3703 27.6041C54.1616 27.2095 54.0785 26.7615 54.132 26.3191Z" fill="#2A5436"/>
<path d="M53.5944 27.6714C53.6567 28.0887 53.719 28.9387 52.3242 29.8273C52.2888 29.3823 52.3915 28.9373 52.6185 28.5519C52.8456 28.1665 53.1861 27.8593 53.5944 27.6714Z" fill="#2A5436"/>
<path d="M51.3271 29.9123C50.8986 29.9123 50.0492 29.7809 49.4492 28.2432C49.896 28.2997 50.3149 28.4896 50.6503 28.7877C50.9857 29.0858 51.2217 29.478 51.3271 29.9123Z" fill="#2A5436"/>
<path d="M51.6314 26.2727C51.8963 26.605 52.4106 27.3082 51.6314 28.7686C51.3736 28.4027 51.2354 27.9671 51.2354 27.5207C51.2354 27.0743 51.3736 26.6386 51.6314 26.2727Z" fill="#2A5436"/>
<path d="M51.9818 24.4336C52.387 24.5727 53.1662 24.9127 53.3064 26.5586C52.8932 26.3809 52.5448 26.082 52.308 25.7021C52.0712 25.3222 51.9573 24.8796 51.9818 24.4336Z" fill="#2A5436"/>
<path d="M6.1875 14.5117C6.60828 14.5967 7.43425 14.8131 7.81607 16.4204C7.38044 16.3054 6.99078 16.0609 6.6996 15.7196C6.40842 15.3783 6.22969 14.9568 6.1875 14.5117Z" fill="#2A5436"/>
<path d="M9.53 15.5085C9.67026 15.9104 9.88844 16.7372 8.66507 17.8267C8.55773 17.3989 8.58284 16.9489 8.73712 16.5354C8.8914 16.1219 9.16769 15.7641 9.53 15.5085Z" fill="#2A5436"/>
<path d="M8.50142 18.4992C8.23649 18.8315 7.65986 19.4574 6.04688 19.0556C6.3505 18.7264 6.74806 18.4969 7.18658 18.3975C7.6251 18.2981 8.08375 18.3335 8.50142 18.4992Z" fill="#2A5436"/>
<path d="M7.79262 17.1469C7.56664 17.5101 7.05236 18.1824 5.4082 17.9197C5.67867 17.565 6.05207 17.3009 6.47829 17.1627C6.90452 17.0246 7.36315 17.0191 7.79262 17.1469Z" fill="#2A5436"/>
<path d="M13.0283 3.94873C13.4569 3.94873 14.2985 4.13418 14.8283 5.69509C14.3844 5.62099 13.974 5.41394 13.6522 5.10176C13.3305 4.78957 13.1127 4.38721 13.0283 3.94873Z" fill="#2A5436"/>
<path d="M63.9971 23.5218C64.2776 23.1973 64.8776 22.5945 66.4672 23.0582C66.1521 23.3758 65.7467 23.5904 65.3053 23.6732C64.8638 23.7561 64.4074 23.7033 63.9971 23.5218Z" fill="#2A5436"/>
<path d="M34.6126 2.07863C34.2931 2.36454 33.6152 2.85136 32.0957 2.20227C32.4527 1.93019 32.885 1.77258 33.3347 1.75049C33.7844 1.7284 34.2302 1.84287 34.6126 2.07863Z" fill="#2A5436"/>
<path d="M15.4596 4.95312C15.857 5.1154 16.6207 5.49403 16.6752 7.13994C16.2725 6.94117 15.9404 6.62539 15.7232 6.2347C15.506 5.844 15.4141 5.39695 15.4596 4.95312Z" fill="#2A5436"/>
<path d="M13.9326 6.02734C14.3612 6.11234 15.1872 6.32871 15.5612 7.93598C15.1271 7.8181 14.7393 7.57268 14.4486 7.232C14.1579 6.89132 13.978 6.47134 13.9326 6.02734Z" fill="#2A5436"/>
<path d="M66.0931 38.8914C65.7892 39.1928 65.1424 39.7492 63.584 39.1696C63.9243 38.8761 64.3466 38.6922 64.7948 38.6425C65.243 38.5929 65.6958 38.6797 66.0931 38.8914Z" fill="#2A5436"/>
<path d="M70.1303 30.8163C69.7562 31.0172 68.977 31.3726 67.6523 30.3681C68.0623 30.1841 68.5192 30.1284 68.9619 30.2085C69.4046 30.2885 69.8122 30.5006 70.1303 30.8163Z" fill="#2A5436"/>
<path d="M70.2073 28.9618C69.88 29.24 69.1865 29.7345 67.6904 29.0159C68.0543 28.7533 68.4904 28.6074 68.9403 28.5977C69.3902 28.588 69.8323 28.7151 70.2073 28.9618Z" fill="#2A5436"/>
<path d="M15.9742 9.72085C15.7405 10.0763 15.195 10.7563 13.582 10.4936C13.8545 10.1391 14.2293 9.87534 14.6566 9.7373C15.084 9.59927 15.5435 9.59353 15.9742 9.72085Z" fill="#2A5436"/>
<path d="M7.92433 19.3181C7.97887 19.7431 8.03342 20.5854 6.61524 21.4586C6.5885 21.0122 6.69943 20.5683 6.93327 20.186C7.16711 19.8036 7.51279 19.5009 7.92433 19.3181Z" fill="#2A5436"/>
<path d="M21.4987 16.0727C21.2727 15.7096 20.8831 14.9523 21.8182 13.5923C22.0248 13.9891 22.1049 14.4388 22.0479 14.8818C21.9908 15.3248 21.7993 15.7402 21.4987 16.0727Z" fill="#2A5436"/>
<path d="M16.6912 16.745C16.286 16.8841 15.4678 17.1159 14.3535 15.9182C14.7818 15.8074 15.2339 15.827 15.6508 15.9745C16.0677 16.122 16.4302 16.3904 16.6912 16.745Z" fill="#2A5436"/>
<path d="M14.6962 18.7233C14.517 19.1097 14.0885 19.8438 12.4287 19.8051C12.6503 19.417 12.9863 19.1054 13.3916 18.912C13.7969 18.7186 14.2521 18.6528 14.6962 18.7233Z" fill="#2A5436"/>
<path d="M14.4862 20.3691C14.4862 20.8019 14.4862 21.6441 12.9277 22.3473C12.9512 21.8988 13.1134 21.4683 13.3922 21.1144C13.671 20.7605 14.053 20.5003 14.4862 20.3691Z" fill="#2A5436"/>
<path d="M24.7561 14.8905C24.6002 15.2846 24.2418 16.0573 22.582 16.1423C22.7709 15.7375 23.0809 15.4001 23.4698 15.1762C23.8588 14.9522 24.3079 14.8524 24.7561 14.8905Z" fill="#2A5436"/>
<path d="M18.2567 17.6104C17.9762 17.2859 17.4775 16.6136 18.1398 15.1145C18.414 15.4689 18.5722 15.8981 18.5931 16.3443C18.614 16.7905 18.4966 17.2323 18.2567 17.6104Z" fill="#2A5436"/>
<path d="M19.9014 18.0972C19.5897 17.8036 19.0053 17.1854 19.5429 15.6245C19.8501 15.9511 20.0492 16.3631 20.1132 16.8051C20.1773 17.2472 20.1034 17.6981 19.9014 18.0972Z" fill="#2A5436"/>
<path d="M12.2803 24.0396C11.9686 23.7537 11.3842 23.1278 11.9218 21.5669C12.229 21.8934 12.4281 22.3055 12.4921 22.7475C12.5562 23.1896 12.4823 23.6405 12.2803 24.0396Z" fill="#2A5436"/>
<path d="M33.5063 18.6383C33.1868 18.3446 32.6102 17.7264 33.1479 16.1655C33.4531 16.4932 33.6508 16.9051 33.7148 17.3466C33.7789 17.7882 33.7061 18.2386 33.5063 18.6383Z" fill="#2A5436"/>
<path d="M16.6757 15.5783C16.2394 15.5783 15.39 15.4624 14.7822 13.9324C15.2295 13.9823 15.6507 14.1668 15.9892 14.461C16.3276 14.7552 16.5672 15.1451 16.6757 15.5783Z" fill="#2A5436"/>
<path d="M14.9297 22.4477C15.2881 22.2082 16.0362 21.7986 17.431 22.6873C17.0391 22.9046 16.5895 22.9982 16.1426 22.9554C15.6956 22.9126 15.2724 22.7355 14.9297 22.4477Z" fill="#2A5436"/>
<path d="M26.4938 30.4223C26.0652 30.4223 25.2081 30.4223 24.4834 28.9155C24.9327 28.9362 25.3652 29.0912 25.724 29.3601C26.0828 29.629 26.3512 29.9993 26.4938 30.4223Z" fill="#2A5436"/>
<path d="M18.6074 26.7518C18.7789 26.3654 19.1918 25.6159 20.8516 25.6313C20.6379 26.0232 20.3082 26.3407 19.9069 26.541C19.5057 26.7414 19.0521 26.8149 18.6074 26.7518Z" fill="#2A5436"/>
<path d="M20.2601 23.9004C20.2601 24.3254 20.0887 25.1599 18.5146 25.7008C18.5865 25.2604 18.7921 24.852 19.1039 24.5304C19.4158 24.2087 19.8191 23.9889 20.2601 23.9004Z" fill="#2A5436"/>
<path d="M24.047 25.7473C24.46 25.8787 25.2548 26.1878 25.4574 27.8182C25.0384 27.6554 24.6791 27.3702 24.4273 27.0004C24.1754 26.6305 24.0428 26.1936 24.047 25.7473Z" fill="#2A5436"/>
<path d="M23.314 24.1323C23.314 24.5573 23.3607 25.4073 21.9114 26.2032C21.9044 25.7574 22.035 25.3201 22.2857 24.95C22.5364 24.5799 22.8952 24.2945 23.314 24.1323Z" fill="#2A5436"/>
<path d="M22.294 22.7646C22.3641 23.1819 22.4576 24.0319 21.094 24.9592C21.0454 24.5158 21.1343 24.0683 21.3487 23.6762C21.563 23.2842 21.8928 22.9662 22.294 22.7646Z" fill="#2A5436"/>
<path d="M23.3764 26.6978C23.7037 26.9682 24.327 27.5478 23.8985 29.1396C23.5697 28.8346 23.3433 28.4369 23.2499 28.0001C23.1566 27.5634 23.2007 27.1088 23.3764 26.6978Z" fill="#2A5436"/>
<path d="M29.1664 8.73944C28.8001 8.9558 28.0365 9.33444 26.6729 8.39171C27.0743 8.18928 27.5288 8.11407 27.9748 8.17626C28.4208 8.23846 28.8368 8.43506 29.1664 8.73944Z" fill="#2A5436"/>
<path d="M28.1374 11.2046C28.0361 11.6219 27.7711 12.4255 26.1348 12.7114C26.2741 12.2879 26.5405 11.9166 26.8984 11.6473C27.2562 11.378 27.6885 11.2236 28.1374 11.2046Z" fill="#2A5436"/>
<path d="M27.865 9.89854C27.639 10.254 27.1325 10.9417 25.5273 10.7176C25.7886 10.3636 26.1515 10.0961 26.5686 9.94992C26.9856 9.80378 27.4375 9.78587 27.865 9.89854Z" fill="#2A5436"/>
<path d="M32.7275 4.63647C32.6496 5.06147 32.447 5.88057 30.8418 6.29784C30.9481 5.86342 31.1856 5.47154 31.5226 5.17464C31.8596 4.87775 32.28 4.68998 32.7275 4.63647Z" fill="#2A5436"/>
<path d="M32.6334 11.529C32.2282 11.6681 31.4101 11.9 30.249 10.7177C30.6824 10.5951 31.1434 10.6071 31.5697 10.7522C31.996 10.8972 32.3672 11.1684 32.6334 11.529Z" fill="#2A5436"/>
<path d="M28.4804 7.41806C28.1376 7.15534 27.4908 6.59897 27.8648 4.9917C28.2045 5.28578 28.4454 5.67574 28.5555 6.10937C28.6655 6.54299 28.6393 6.9996 28.4804 7.41806Z" fill="#2A5436"/>
<path d="M31.2705 13.909C30.9042 13.6926 30.2029 13.1904 30.4211 11.5908C30.7814 11.8476 31.0553 12.2063 31.2068 12.6198C31.3583 13.0334 31.3805 13.4827 31.2705 13.909Z" fill="#2A5436"/>
<path d="M27.5295 7.46448C27.1087 7.53402 26.2516 7.60357 25.3477 6.22039C25.7959 6.18231 26.2451 6.28108 26.6351 6.50346C27.0251 6.72583 27.3372 7.06117 27.5295 7.46448Z" fill="#2A5436"/>
<path d="M2.49351 23.7613C2.12727 23.9854 1.37143 24.3717 0 23.4367C0.39945 23.2324 0.852331 23.154 1.29798 23.212C1.74363 23.27 2.16076 23.4616 2.49351 23.7613Z" fill="#2A5436"/>
<path d="M5.08844 27.1768C5.23649 27.5786 5.45467 28.3977 4.24688 29.4949C4.13601 29.0694 4.157 28.6206 4.30711 28.2071C4.45723 27.7936 4.72951 27.4346 5.08844 27.1768Z" fill="#2A5436"/>
<path d="M6.74049 25.7473C7.1301 25.9328 7.87816 26.35 7.8314 28.0037C7.44092 27.781 7.12765 27.4462 6.9329 27.0434C6.73816 26.6406 6.67107 26.1887 6.74049 25.7473Z" fill="#2A5436"/>
<path d="M5.79729 26.9758C6.10898 27.2695 6.6856 27.8954 6.13236 29.4486C5.82893 29.1194 5.63422 28.7062 5.57433 28.2642C5.51445 27.8223 5.59224 27.3727 5.79729 26.9758Z" fill="#2A5436"/>
<path d="M4.76876 21.3582C5.13499 21.59 5.8207 22.1309 5.54798 23.7304C5.19141 23.4595 4.92605 23.0878 4.78693 22.6643C4.64782 22.2407 4.64148 21.7853 4.76876 21.3582Z" fill="#2A5436"/>
<path d="M3.11645 22.1465C3.51385 22.301 4.28528 22.6642 4.37099 24.3101C3.9643 24.1194 3.62614 23.81 3.4019 23.4232C3.17765 23.0365 3.07805 22.591 3.11645 22.1465Z" fill="#2A5436"/>
<path d="M6.18674 23.7227C6.24908 24.1477 6.31921 24.9899 4.91661 25.8786C4.88228 25.4338 4.98544 24.9892 5.21236 24.604C5.43928 24.2189 5.77917 23.9114 6.18674 23.7227Z" fill="#2A5436"/>
<path d="M5.5791 36.2641C5.99988 36.1868 6.84923 36.0786 7.79988 37.4309C7.35394 37.4838 6.90233 37.4004 6.50547 37.1919C6.1086 36.9834 5.78541 36.6597 5.5791 36.2641Z" fill="#2A5436"/>
<path d="M8.30626 36.5963C7.90886 36.4418 7.12964 36.0863 7.03613 34.4404C7.44441 34.6283 7.78493 34.9356 8.01198 35.3209C8.23902 35.7063 8.34172 36.1514 8.30626 36.5963Z" fill="#2A5436"/>
<path d="M5.5791 38.3737C5.89079 38.0801 6.56092 37.5469 8.08819 38.196C7.73811 38.4757 7.31016 38.6427 6.86171 38.6744C6.41326 38.7062 5.96573 38.6013 5.5791 38.3737Z" fill="#2A5436"/>
<path d="M6.17969 40.9545C6.17969 40.5295 6.27319 39.6795 7.80047 39.0459C7.75881 39.49 7.58123 39.9108 7.29153 40.252C7.00183 40.5931 6.61388 40.8383 6.17969 40.9545Z" fill="#2A5436"/>
<path d="M8.5166 39.3008C8.94517 39.3471 9.78673 39.494 10.301 41.0626C9.85826 40.9836 9.45029 40.7727 9.13149 40.4579C8.81269 40.1431 8.5982 39.7395 8.5166 39.3008Z" fill="#2A5436"/>
<path d="M4.67509 26.4813C4.35561 26.7595 3.67768 27.2541 2.1582 26.5895C2.51685 26.3198 2.94991 26.1649 3.39961 26.1456C3.8493 26.1263 4.29425 26.2434 4.67509 26.4813Z" fill="#2A5436"/>
<path d="M4.20737 25.0287C3.91127 25.3455 3.28789 25.9173 1.71387 25.3764C2.04459 25.074 2.4604 24.8787 2.90589 24.8166C3.35137 24.7544 3.80537 24.8284 4.20737 25.0287Z" fill="#2A5436"/>
<path d="M3.89605 27.1924C3.89605 27.6174 3.77137 28.4597 2.22852 29.0624C2.27981 28.6188 2.46726 28.2016 2.7655 27.8671C3.06375 27.5327 3.45839 27.2971 3.89605 27.1924Z" fill="#2A5436"/>
<path d="M9.43684 30.4067C9.00827 30.3526 8.16671 30.1904 7.68359 28.614C8.12542 28.6996 8.53024 28.9173 8.84365 29.2378C9.15707 29.5583 9.36407 29.9662 9.43684 30.4067Z" fill="#2A5436"/>
<path d="M9.30434 31.1177C8.89914 31.2645 8.08096 31.504 6.91992 30.3449C7.34946 30.2182 7.80774 30.2243 8.23372 30.3623C8.6597 30.5004 9.03315 30.7639 9.30434 31.1177Z" fill="#2A5436"/>
<path d="M9.93538 29.3636C9.56136 29.1627 8.84447 28.699 8.98473 27.0454C9.36334 27.2889 9.6575 27.6418 9.8275 28.0563C9.9975 28.4709 10.0352 28.9272 9.93538 29.3636Z" fill="#2A5436"/>
<path d="M10.6132 22.834C10.434 23.2204 10.0132 23.9622 8.3457 23.9235C8.56703 23.5347 8.90268 23.2222 9.30783 23.0275C9.71299 22.8328 10.1684 22.7653 10.6132 22.834Z" fill="#2A5436"/>
<path d="M12.7484 26.7749C12.8965 27.1767 13.1225 27.9881 11.9225 29.1317C11.8002 28.7023 11.8139 28.246 11.9616 27.8245C12.1093 27.403 12.384 27.0366 12.7484 26.7749Z" fill="#2A5436"/>
<path d="M13.7615 27.7253C14.0732 28.019 14.6498 28.6526 14.0965 30.2058C13.7934 29.8749 13.599 29.4604 13.5392 29.0174C13.4793 28.5743 13.5569 28.1237 13.7615 27.7253Z" fill="#2A5436"/>
<path d="M18.7634 31.249C18.8492 31.6663 18.9738 32.5008 17.6336 33.4822C17.5682 33.04 17.6416 32.5886 17.8437 32.1891C18.0458 31.7896 18.3669 31.4614 18.7634 31.249Z" fill="#2A5436"/>
<path d="M13.4729 39.811C13.7534 40.1356 14.2521 40.8233 13.543 42.3069C13.2769 41.9473 13.1276 41.5158 13.1151 41.0698C13.1026 40.6239 13.2274 40.1848 13.4729 39.811Z" fill="#2A5436"/>
<path d="M19.3633 39.27C19.7841 39.3705 20.5945 39.6255 20.9217 41.2482C20.4885 41.1171 20.1066 40.8569 19.8278 40.503C19.5489 40.149 19.3868 39.7185 19.3633 39.27Z" fill="#2A5436"/>
<path d="M14.3221 37.5623C14.587 37.8945 15.1013 38.5977 14.3221 40.0582C14.0653 39.6918 13.9277 39.2563 13.9277 38.8102C13.9277 38.3641 14.0653 37.9286 14.3221 37.5623Z" fill="#2A5436"/>
<path d="M16.9014 38.1804C17.3299 38.2268 18.1715 38.3891 18.6702 39.9577C18.2281 39.8749 17.822 39.6604 17.506 39.3429C17.19 39.0253 16.9791 38.6198 16.9014 38.1804Z" fill="#2A5436"/>
<path d="M15.6309 38.6365C16.0205 38.8142 16.7686 39.216 16.7608 40.8697C16.365 40.6564 16.0446 40.3281 15.8426 39.9288C15.6406 39.5296 15.5667 39.0786 15.6309 38.6365Z" fill="#2A5436"/>
<path d="M8.80566 34.3401C9.23424 34.3401 10.0836 34.4483 10.6992 35.9783C10.2525 35.9299 9.83155 35.747 9.49299 35.4541C9.15442 35.1612 8.91454 34.7724 8.80566 34.3401Z" fill="#2A5436"/>
<path d="M3.45215 36.8976C3.81059 36.6735 4.56643 36.2717 5.95345 37.1835C5.55692 37.3947 5.10473 37.4805 4.6576 37.4294C4.21048 37.3783 3.78983 37.1927 3.45215 36.8976Z" fill="#2A5436"/>
<path d="M16.8545 32.7637C17.0571 33.1423 17.3921 33.915 16.3558 35.2055C16.1773 34.7967 16.1294 34.3435 16.2185 33.9069C16.3077 33.4703 16.5296 33.0713 16.8545 32.7637Z" fill="#2A5436"/>
<path d="M12.1091 38.1804C11.891 38.5514 11.4234 39.2545 9.77148 39.1C10.0202 38.7287 10.3774 38.4417 10.7952 38.2774C11.213 38.113 11.6714 38.0792 12.1091 38.1804Z" fill="#2A5436"/>
<path d="M19.6599 33.6599C19.5586 34.0772 19.317 34.8885 17.6885 35.2054C17.8193 34.7793 18.0782 34.4031 18.4305 34.1269C18.7828 33.8507 19.2117 33.6878 19.6599 33.6599Z" fill="#2A5436"/>
<path d="M12.2805 39.1077C12.4052 39.5172 12.5844 40.344 11.3143 41.4258C11.2172 40.9878 11.2578 40.5308 11.4305 40.1164C11.6033 39.7019 11.8999 39.3499 12.2805 39.1077Z" fill="#2A5436"/>
<path d="M40.4101 57.3519C40.1739 57.0647 39.8792 56.8303 39.5452 56.6641C39.4278 56.6143 39.298 56.6008 39.1728 56.6257C39.0475 56.6505 38.9329 56.7124 38.8439 56.8032C38.7688 56.9097 38.7285 57.0365 38.7285 57.1664C38.7285 57.2963 38.7688 57.4231 38.8439 57.5296C39.0431 57.8409 39.3092 58.1048 39.6231 58.3023L39.966 58.5496C40.4495 58.9842 40.8415 59.5094 41.1192 60.095C41.3692 60.6418 41.7238 61.1351 42.1634 61.5478C43.2659 62.3236 44.5179 62.8655 45.8413 63.1396H45.966C46.1011 63.179 46.2392 63.2074 46.379 63.2246C45.701 62.7532 45.0854 62.1582 44.4075 61.5864C43.5036 60.8137 42.553 60.3346 42.0699 59.1678C41.9465 58.8649 41.8601 58.5484 41.8127 58.225C41.5867 58.1761 41.369 58.0955 41.166 57.9855C40.8841 57.8121 40.6295 57.5986 40.4101 57.3519Z" fill="#3F3930"/>
<path d="M28.2466 33.459C28.0735 32.8832 28.0075 32.281 28.0518 31.6817C27.9678 30.8683 27.575 30.1169 26.9531 29.5799C27.3385 30.3641 27.5333 31.2268 27.522 32.099C27.5175 32.7366 27.4575 33.3726 27.3427 33.9999C26.5771 33.7977 25.8818 33.3915 25.3324 32.8254C24.484 31.8435 23.7616 30.7612 23.1817 29.6031C23.1194 29.4872 23.0492 29.3713 22.9791 29.2554C23.1006 29.6935 23.1193 30.1535 23.0337 30.5999C23.0337 30.7699 23.0337 30.9476 22.9791 31.1408C22.9064 31.8242 23.0655 32.5121 23.4311 33.0958C23.8669 33.4825 24.4099 33.7302 24.9895 33.8067C25.1493 33.8359 25.3106 33.8565 25.4726 33.8686C25.8318 33.8838 26.1853 33.9623 26.5168 34.1004C26.9333 34.3545 27.2705 34.7183 27.4908 35.1513L27.5298 35.2131L27.6389 35.3908C27.9116 35.839 28.3713 36.5963 28.8388 36.6504C28.9304 36.6568 29.0221 36.6412 29.1062 36.6049C29.1904 36.5685 29.2644 36.5126 29.322 36.4417C29.7427 36.0167 29.5713 35.2517 29.322 34.5331C28.8813 34.2665 28.5123 33.8979 28.2466 33.459Z" fill="#3F3930"/>
<path d="M32.2593 66.1379C32.5476 65.5583 32.8749 65.0251 33.2878 64.8938C33.3833 64.8633 33.4843 64.8538 33.5838 64.8658C33.6834 64.8778 33.7791 64.9111 33.8645 64.9633C34.197 65.2265 34.4637 65.5623 34.6437 65.9447C34.7177 66.0914 34.801 66.2333 34.893 66.3697L35.0255 66.5551C35.0255 66.6015 35.0956 66.6479 35.1268 66.7019C35.5057 66.8345 35.8974 66.9277 36.2956 66.9801C35.691 66.3389 35.2408 65.5701 34.9787 64.7315C34.932 64.6001 34.893 64.4456 34.8463 64.291C34.6593 63.6342 34.4645 62.962 33.7943 62.931C33.1242 62.9001 32.3372 63.7038 31.9788 64.1906C31.8073 64.4379 31.6515 64.6929 31.5112 64.9633C31.2492 65.443 30.9329 65.8915 30.5684 66.3001C30.8566 66.2268 31.1516 66.1828 31.4489 66.1688C31.6904 66.1301 31.9476 66.1301 32.2593 66.1379Z" fill="#3F3930"/>
<path d="M34.3246 66.099C34.1845 65.7705 33.9682 65.4793 33.6935 65.249C33.6495 65.2194 33.5994 65.1999 33.5468 65.1919C33.4942 65.1839 33.4405 65.1875 33.3896 65.2026C33.1168 65.2876 32.8519 65.6972 32.6104 66.1531C32.9765 66.1775 33.3408 66.2239 33.7013 66.2922C33.9967 66.3546 34.2882 66.4346 34.574 66.5317C34.4961 66.4081 34.4181 66.2613 34.3246 66.099Z" fill="#3F3930"/>
<path d="M39.943 28.0732C39.5722 28.4058 39.2751 28.811 39.0703 29.2632C38.892 29.7581 38.8385 30.2886 38.9144 30.8087C38.9828 31.3799 38.9297 31.959 38.7586 32.5087C38.6495 32.7869 38.5248 33.0573 38.4079 33.3201C37.9545 34.1099 37.7585 35.0195 37.8469 35.9242C37.8859 36.3557 38.016 36.7743 38.2287 37.1528C38.4469 37.4001 38.5949 37.3305 39.0079 37.0832H39.0703C39.3953 36.8543 39.6979 36.5956 39.9742 36.3105C39.304 35.5378 39.2339 33.7373 39.3975 32.9723C39.5742 32.2381 39.712 31.4953 39.8105 30.7469C39.8729 30.1596 39.7248 29.5414 39.7638 28.9464C39.7633 28.6463 39.8243 28.3493 39.943 28.0732Z" fill="#3F3930"/>
<path d="M47.7271 15.5549C47.6335 16.034 47.0413 16.3276 46.6284 16.4899C45.9972 16.799 45.0232 17.5408 44.3374 17.5254C43.3478 17.5254 42.8725 16.204 41.9998 16.1267C42.5452 17.2394 43.7686 18.0354 43.1764 19.4649C42.7556 20.4617 42.0465 21.219 41.7816 22.2776C41.7216 22.8061 41.596 23.3252 41.4076 23.8231C41.0475 24.3183 40.5853 24.7318 40.0517 25.0363C39.7111 25.275 39.3952 25.5468 39.1089 25.8476C38.8439 26.1181 38.6725 26.489 38.4154 26.7594C38.1582 27.0299 37.7063 26.6358 37.4803 26.3267C37.0673 25.7704 36.8258 25.0904 36.4751 24.5031C36.2803 24.7504 36.5764 25.4767 36.6699 25.7626C36.9582 26.5817 37.2232 27.3854 37.4491 28.2276C37.6142 28.8524 37.6222 29.5077 37.4725 30.1363C37.3478 30.824 37.3712 31.5117 37.2855 32.1917C37.2855 32.4158 37.192 32.6167 37.1764 32.8331C37.1764 32.8794 37.1219 33.1885 37.0751 33.4126C37.0605 34.2381 36.9078 35.0554 36.6232 35.8313L36.553 36.0399C36.402 36.413 36.3074 36.8062 36.2725 37.2067C36.2806 37.4288 36.3146 37.6492 36.3738 37.8635C36.424 38.0326 36.4579 38.2059 36.4751 38.3813C36.5057 38.8769 36.4477 39.3739 36.3037 39.8494C36.2558 40.0173 36.1986 40.1824 36.1323 40.344C35.9821 40.6275 35.9045 40.9433 35.9063 41.2635C36.0232 41.9744 37.0985 42.4844 37.9712 42.894C38.3414 43.0541 38.6983 43.2427 39.0387 43.4581C39.6172 43.8642 40.0683 44.424 40.34 45.0731L40.3868 45.2122C40.6257 45.1217 40.8511 44.9995 41.0569 44.849C41.2991 44.5912 41.4731 44.2779 41.5634 43.9372C41.2776 43.6991 40.9784 43.4773 40.6673 43.2726C40.391 43.0995 40.1303 42.903 39.8881 42.6854C39.4001 42.1692 39.1225 41.4919 39.1089 40.7844L39.0621 40.4135C38.903 39.8059 38.9868 39.1609 39.2959 38.6131C39.51 38.2773 39.758 37.964 40.0361 37.6781C40.1608 37.5313 40.2933 37.3844 40.418 37.2299C40.5481 37.0648 40.6678 36.8919 40.7764 36.7122C40.5531 36.7235 40.3321 36.6639 40.1452 36.5422C39.8418 36.8367 39.5161 37.1079 39.1712 37.3535H39.1089C38.9186 37.5058 38.6892 37.6021 38.4465 37.6317C38.3459 37.6273 38.2476 37.6008 38.1586 37.554C38.0697 37.5072 37.9923 37.4414 37.9323 37.3613C37.6764 36.9374 37.5193 36.4622 37.4725 35.9704C37.3679 34.9994 37.5752 34.0204 38.0647 33.1731C38.1816 32.9181 38.2985 32.6554 38.3998 32.4004C38.5535 31.9003 38.5987 31.3735 38.5323 30.8549C38.4612 30.2866 38.5253 29.7097 38.7193 29.1704C39.1658 28.2519 39.9053 27.505 40.8232 27.0454C41.2985 26.659 41.8595 26.3267 42.3349 25.9094C43.2933 25.0672 43.4024 24.1554 43.5582 22.9885C43.6258 22.407 43.8653 21.8583 44.2466 21.4114C44.6279 20.9645 45.1339 20.6395 45.7011 20.4772C46.5248 20.2395 47.3254 19.9292 48.0933 19.5499C48.9864 19.0051 49.8264 18.3791 50.6024 17.6799C51.5374 16.8376 53.9141 15.949 54.1868 14.589C53.781 14.8491 53.4071 15.1551 53.0725 15.5008C52.2708 15.9898 51.4319 16.4161 50.5634 16.7758C49.8372 17.1058 49.1628 17.5378 48.5608 18.0585C48.1645 18.5084 47.7115 18.9058 47.2128 19.2408C46.8387 19.4494 44.0024 20.4076 43.831 20.2144C43.5582 19.8822 44.7271 18.669 44.9374 18.4913C45.8803 17.6644 47.0725 17.3167 48.0154 16.4822C49.4258 15.2304 51.4595 12.7885 50.8595 10.7485C50.6558 11.0997 50.4936 11.4731 50.3764 11.8613C50.0803 12.4717 49.7764 13.1672 49.4258 13.739C49.1686 14.1563 48.4751 14.9135 47.992 14.6663C47.5089 14.419 47.6959 13.6385 47.1504 13.654C47.1504 14.2954 47.8751 14.8517 47.7271 15.5549Z" fill="#3F3930"/>
<path d="M39.6702 54.5158C39.7985 54.8323 40.0114 55.1082 40.286 55.3138C40.5606 55.5194 40.8865 55.6469 41.2286 55.6826C41.358 55.6982 41.4888 55.6982 41.6182 55.6826C41.622 55.6208 41.622 55.5589 41.6182 55.4971C41.3156 54.5374 40.927 53.6064 40.4572 52.7153C40.1758 52.9184 39.9544 53.1925 39.816 53.5091C39.6776 53.8257 39.6272 54.1733 39.6702 54.5158Z" fill="#3F3930"/>
<path d="M44.1035 40.599C44.2084 40.3883 44.3688 40.2096 44.5677 40.0818C44.7666 39.9539 44.9965 39.8817 45.2333 39.8726L45.0073 39.8108C44.714 39.7102 44.406 39.658 44.0957 39.6562C43.1899 39.6935 42.3229 40.0309 41.6333 40.6144C41.5802 40.6634 41.5386 40.7235 41.5117 40.7903C41.4847 40.8571 41.473 40.929 41.4775 41.0008C41.4775 41.2403 41.8125 41.4722 42.0931 41.6653L42.1866 41.7349C42.2889 41.8155 42.3852 41.9033 42.4749 41.9976L42.6073 42.129C42.7788 42.0131 42.9658 41.9126 43.1996 41.7735C43.6044 41.4722 43.9172 41.0657 44.1035 40.599Z" fill="#3F3930"/>
<path d="M13.0524 17.2782C12.7563 17.2782 11.8602 16.8687 11.8368 17.3323C12.9786 17.4705 14.0988 17.7482 15.1719 18.1592C15.9043 18.3755 17.6186 18.5069 18.1251 19.071C17.6264 19.2023 17.081 19.3955 16.5667 19.4805C16.216 19.5423 15.8264 19.4805 15.4914 19.5346C17.4082 20.7323 21.1017 18.4837 22.5043 20.856C22.3251 20.5623 21.1173 21.1882 20.9459 21.3042C20.3489 21.629 19.6685 21.7715 18.9901 21.7137C18.5615 21.7137 17.8836 21.4742 17.5329 21.6673C17.8991 22.1387 19.442 22.3473 18.242 23.1046C17.6576 23.4678 16.1771 23.4523 15.8264 23.9778C16.5511 24.341 17.9303 23.9778 18.6238 23.6532C19.3173 23.3287 20.0108 22.811 20.7433 22.4092C22.4576 21.4664 23.9693 21.9764 24.9511 23.6687C25.1332 24.1301 25.2359 24.6186 25.255 25.1137C25.48 25.7964 25.8475 26.4245 26.3335 26.957C26.8195 27.4896 27.4131 27.9147 28.0758 28.2046C28.832 28.4951 29.4927 28.9872 29.9849 29.6264C30.5444 30.2558 30.9734 30.9884 31.2472 31.7823C31.3524 32.5179 31.3524 33.2645 31.2472 34.0001C30.7563 34.7728 31.8472 36.0555 31.9875 36.9905C32.1901 37.3614 32.4394 37.7632 32.7667 38.2964L32.8212 38.3814C33.3355 39.2082 33.5537 39.3551 33.6394 39.3396C33.7251 39.3242 33.7485 39.3396 33.8108 38.876C33.8253 38.2621 33.7029 37.6526 33.4524 37.091C33.3052 36.7009 33.1982 36.297 33.1329 35.8855C33.055 35.3292 33.0238 34.7496 32.9926 34.1314C32.9069 32.586 32.829 30.9864 31.9719 29.7655C31.3866 29.0204 30.6306 28.4244 29.7667 28.0269C29.2999 27.7774 28.8496 27.4987 28.4186 27.1923C27.6375 26.5618 27.0894 25.6922 26.8602 24.7196C26.8347 24.3354 26.9127 23.9514 27.0862 23.6069C27.1731 23.4163 27.2384 23.2168 27.281 23.0119C27.0362 22.7859 26.8262 22.5256 26.6576 22.2392C25.7147 20.7401 25.4888 17.7728 23.3771 17.3401C24.1079 18.1802 24.714 19.1195 25.1771 20.1296C25.3234 20.5488 25.5059 20.9547 25.7225 21.3428C25.3064 20.7464 24.8256 20.1971 24.2888 19.7046C23.5175 19.2035 22.6586 18.8497 21.7563 18.6614C20.3381 18.306 18.8342 18.2673 17.4004 17.9428C15.8627 17.6303 14.3595 17.1697 12.9121 16.5673C11.8488 16.0482 10.8455 15.416 9.91992 14.6819C10.2394 15.9414 12.1329 16.5828 13.0524 17.2782Z" fill="#3F3930"/>
<path d="M52.6287 64.5692V66.1688C51.1248 65.9369 49.4729 66.4238 47.9534 66.1688C46.2625 65.8674 44.6885 65.1333 42.9508 65.0483C42.5386 65.0133 42.1241 65.0133 41.7118 65.0483C41.4022 64.8863 41.1142 64.6864 40.8547 64.4533C40.0131 63.6806 40.0131 62.6297 40.0054 61.5478V61.486C40.0054 60.2033 39.2963 59.5465 38.5404 58.851C38.1964 58.5508 37.8784 58.2226 37.5898 57.8697C36.3898 56.3242 37.0677 55.111 38.0729 53.666C38.4146 53.1168 38.8527 52.6327 39.3664 52.2365C39.5664 52.1007 39.7806 51.9867 40.0054 51.8965C40.0755 52.0665 40.1456 52.2365 40.2235 52.4065L40.1612 52.4606C39.8484 52.7089 39.6073 53.0348 39.4622 53.4052C39.3172 53.7757 39.2734 54.1775 39.3352 54.5701C39.4749 54.9445 39.7148 55.2739 40.0292 55.5231C40.3437 55.7723 40.7207 55.9317 41.1196 55.9842C41.2336 55.996 41.3485 55.996 41.4625 55.9842H41.6339C41.7352 56.6333 41.7041 57.236 41.7586 57.8542C41.6002 57.8167 41.448 57.7568 41.3067 57.6765C41.0603 57.5081 40.8353 57.3109 40.6365 57.0892C40.3748 56.7558 40.0351 56.4906 39.6469 56.3165C39.4658 56.2425 39.266 56.2257 39.0749 56.2686C38.8838 56.3115 38.7107 56.4119 38.5794 56.556C38.4592 56.7099 38.3883 56.8959 38.3758 57.0901C38.3633 57.2843 38.4098 57.4778 38.5093 57.6456C38.739 57.9948 39.0453 58.288 39.4054 58.5033L39.7248 58.7428C40.1912 59.1693 40.5581 59.6914 40.8002 60.2728C41.0752 60.854 41.4585 61.3784 41.93 61.8183C43.0668 62.6275 44.3623 63.1909 45.7326 63.4719H45.8495C46.2068 63.5726 46.5768 63.622 46.9482 63.6188C47.5805 63.9761 48.2933 64.1701 49.0209 64.1828C50.2833 64.1906 51.5144 63.7888 52.6287 64.5692Z" fill="#3F3930"/>
<path d="M28.8311 25.7394C28.9582 25.7614 29.0888 25.7517 29.2112 25.7112C29.3336 25.6708 29.444 25.6008 29.5324 25.5076C29.679 25.3583 29.7954 25.1826 29.8752 24.9899C29.7528 24.8465 29.62 24.7122 29.4778 24.5881C29.0439 24.2408 28.5884 23.9208 28.1142 23.6299C27.9672 24.1987 28.0166 24.7999 28.2544 25.3376C28.3147 25.4426 28.3977 25.5331 28.4974 25.6026C28.5971 25.672 28.711 25.7188 28.8311 25.7394Z" fill="#3F3930"/>
<path d="M30.3896 62.591C31.7454 61.8183 31.7766 60.5588 31.8156 59.1988C31.7383 58.1663 31.9773 57.1347 32.5013 56.2392C32.9262 55.6969 33.4067 55.1997 33.935 54.7556C34.9169 53.8824 35.8363 53.0556 35.922 51.6647C35.9631 49.4684 35.374 47.3058 34.2233 45.4288C33.3714 43.995 32.2776 42.7169 30.9896 41.6501C30.3833 41.1579 29.7089 40.7546 28.987 40.4524C29.5299 41.2571 30.1178 42.0311 30.748 42.7706C31.3071 43.3361 31.6958 44.0454 31.8701 44.8183L32.0493 44.9574C32.6396 45.3762 33.1647 45.8787 33.6078 46.4488C34.0758 47.1162 34.4605 47.8376 34.7532 48.5969C35.5324 50.6138 34.0753 52.6151 32.2675 53.5424C32.0139 53.669 31.7538 53.7825 31.4883 53.8824L31.3714 53.9365C31.3013 54.4929 31.3714 55.026 31.3714 55.5978C31.3744 55.9931 31.3058 56.3857 31.1688 56.7569C30.9818 57.1665 30.561 57.5297 30.4675 57.9624C30.4648 58.397 30.4125 58.8299 30.3117 59.2528C30.0857 59.8169 30.0311 59.5465 29.6182 59.7242L29.5169 59.7783C29.862 60.254 30.0047 60.8451 29.9143 61.4242C29.8479 61.5786 29.7403 61.7121 29.6029 61.8102C29.4656 61.9083 29.3038 61.9672 29.135 61.9806H28.9169C28.7958 61.9809 28.6753 61.9653 28.5584 61.9342C28.4448 62.0897 28.2915 62.2124 28.1143 62.2897C28.9246 62.6838 29.6571 62.9542 30.3896 62.591Z" fill="#3F3930"/>
<path d="M46.301 32.3541C45.5147 32.7364 44.9125 33.4113 44.6257 34.2319C44.4466 34.7078 44.3747 35.2168 44.4153 35.7232C44.6933 35.4073 44.9899 35.108 45.3036 34.8269C46.0828 34.1237 47.5478 33.0264 47.3997 31.8132C47.1748 31.946 46.9404 32.0622 46.6984 32.161L46.301 32.3541Z" fill="#3F3930"/>
<path d="M65.5634 28.3437C65.1532 28.7547 64.6514 29.0643 64.0985 29.2478C63.197 29.5364 62.3192 29.8929 61.4725 30.3142C60.818 30.7006 60.5998 31.396 60.1011 31.9137C59.6821 32.4251 59.1255 32.8083 58.4959 33.0187C56.5245 33.5596 54.4284 32.4469 52.4102 33.0187C51.9426 33.1424 50.2907 34.2242 51.0543 33.0187C51.3862 32.3782 51.8573 31.8187 52.4336 31.3806C53.2128 30.9324 54.4595 31.1719 55.3556 30.9478C56.2517 30.7237 57.5998 30.4842 58.0829 29.6883C58.4881 29.0237 58.2855 28.1428 58.566 27.4396C58.7983 26.8599 59.1484 26.3339 59.5946 25.8942C59.9608 25.4924 60.5219 24.9901 60.5063 24.4028C60.2569 24.6501 59.9297 24.4956 59.6491 24.6424C59.3808 24.8436 59.1689 25.1097 59.0336 25.4151C58.5512 26.0975 58.0309 26.7528 57.4751 27.3778C56.9374 28.081 56.6959 28.8151 55.9167 29.2246C54.8946 29.6902 53.8067 29.9977 52.6907 30.1365C51.7897 30.1891 50.9199 30.4828 50.1738 30.9865C49.6006 31.5535 49.1569 32.236 48.8725 32.9878C48.5755 33.7853 48.1662 34.5372 47.6569 35.221C47.1788 35.617 46.6765 35.9835 46.153 36.3183C45.7478 36.6428 45.4361 37.091 45.0076 37.3924C44.3998 37.8019 43.6206 37.8174 42.9972 38.1651C42.9193 37.5856 43.5271 37.0524 43.7764 36.6196C43.8969 36.407 44.0323 36.203 44.1816 36.0092C43.8387 35.476 44.2829 34.1392 44.2907 34.1237C44.6056 33.2245 45.2668 32.4854 46.1297 32.0683L46.5504 31.8751C46.8222 31.7686 47.0831 31.6366 47.3297 31.481V31.4115C46.792 30.1828 44.766 30.3837 44.6413 28.8615C44.5323 27.9195 44.7764 26.9706 45.3271 26.1956C45.818 25.5928 46.4258 25.4228 47.0024 25.0133C47.579 24.6037 47.9842 23.9546 48.7089 23.7228C49.8387 23.3751 51.0465 23.6765 52.153 23.6765C52.6491 23.722 53.1493 23.663 53.6207 23.5032C54.0921 23.3434 54.524 23.0864 54.8881 22.7492C55.2472 22.4035 55.5083 21.9701 55.6451 21.4927C55.7819 21.0152 55.7895 20.5105 55.6673 20.0292C55.566 19.0092 55.9556 18.0433 55.9011 17.031C55.0673 17.1856 55.34 19.7819 55.3089 20.4156C55.2543 21.5978 54.8491 22.5251 53.54 22.7337C52.231 22.9424 51.0621 22.301 49.7998 21.961C47.9141 21.4896 45.9504 21.4665 45.1245 23.5065C44.9106 24.2251 44.5789 24.9039 44.1426 25.5156C43.4959 26.2883 42.8024 26.8369 42.5842 27.8724C42.4878 28.169 42.4657 28.4845 42.52 28.7916C42.5744 29.0986 42.7034 29.3878 42.8959 29.6342C43.2543 30.121 44.3219 30.7315 44.3452 31.3728C44.3452 31.8751 43.6907 32.3001 43.2933 32.4469C42.3349 32.8178 41.3297 32.2615 40.4569 32.0065C40.6829 32.7405 41.8595 33.0419 42.4206 33.4746C43.1998 34.0696 42.9271 34.4328 42.4206 35.0201C42.1016 35.5299 41.728 36.004 41.3063 36.4342L41.1582 36.6506L41.0413 36.8437C40.9267 37.0374 40.7991 37.2233 40.6595 37.4001C40.5348 37.5546 40.3946 37.7092 40.2621 37.856C40.0025 38.1285 39.7679 38.4233 39.5608 38.7369C39.2901 39.2254 39.223 39.7995 39.3738 40.3365L39.4206 40.7074C39.4142 41.3366 39.6448 41.9456 40.0673 42.4151C40.2971 42.6151 40.5391 42.8009 40.792 42.9715C41.0635 43.1569 41.3237 43.3582 41.5712 43.5742C41.6449 43.3089 41.7414 43.0504 41.8595 42.8015C41.9614 42.61 42.0958 42.4375 42.2569 42.2915L42.1478 42.191C42.0711 42.1072 41.9877 42.0297 41.8985 41.9592L41.8128 41.8896C41.4855 41.6578 41.1037 41.3874 41.0336 41.001C41.0226 40.8841 41.0387 40.7663 41.0806 40.6565C41.1224 40.5467 41.189 40.4479 41.2751 40.3674C42.027 39.7137 42.9802 39.3324 43.979 39.2855C44.3232 39.293 44.6645 39.3503 44.992 39.4556C45.228 39.5298 45.4707 39.5815 45.7167 39.6101C46.0682 39.6341 46.4214 39.6159 46.7686 39.556C47.2446 39.4096 47.6741 39.1434 48.0154 38.7833C48.5219 38.2424 48.7089 37.4928 49.2543 36.9596C50.6725 35.5765 52.8465 36.3105 54.2959 37.3228C55.0751 37.856 58.8154 41.8124 59.7504 40.2824C59.3608 39.9887 58.8076 40.0119 58.379 39.7337C57.9103 39.4012 57.4651 39.0371 57.0465 38.6442C55.8076 37.5237 54.7089 36.0169 53.0959 35.4296C52.3751 35.1851 51.6106 35.0929 50.8517 35.1592C51.1478 35.1592 51.5374 34.7883 51.8024 34.6337C52.3241 34.3779 52.8959 34.2381 53.4777 34.2242C54.5063 34.1237 55.7297 33.8842 56.6881 34.371C57.4125 34.8195 58.2004 35.1581 59.0258 35.3755C59.8907 35.5455 60.7712 35.4605 61.6284 35.6383C62.4888 35.8245 63.2763 36.254 63.8959 36.8746C64.418 35.7928 61.8933 35.4605 61.3712 35.4296C60.7214 35.3992 60.0837 35.2444 59.4933 34.9737C58.9185 34.6224 58.3038 34.3397 57.6621 34.1315C58.0751 33.2351 59.3141 33.5596 60.0777 33.3587C60.8592 32.9932 61.5169 32.4108 61.9712 31.6819C62.2642 31.1903 62.6537 30.7619 63.1167 30.4224C63.5608 30.1674 64.0595 30.0669 64.5193 29.8274C64.979 29.5878 65.766 28.9542 65.5634 28.3437Z" fill="#3F3930"/>
<path d="M32.1505 53.2176C33.8336 52.3522 35.1739 50.5131 34.4881 48.674C34.208 47.9396 33.8391 47.2416 33.3894 46.5954C32.9737 46.079 32.4887 45.6214 31.9479 45.2354C31.9568 45.4672 31.9305 45.699 31.87 45.9231C31.605 46.8272 30.9817 47.1981 31.4492 48.2413C31.8894 48.9651 32.1287 49.7915 32.1427 50.6367C32.0149 51.6134 31.8037 52.5777 31.5115 53.519C31.7063 53.4185 31.9479 53.3181 32.1505 53.2176Z" fill="#3F3930"/>
<path d="M37.177 46.7809C37.177 46.8505 37.2237 46.9355 37.2549 47.0205C37.3718 47.3914 37.5432 47.9555 37.8705 48.0019C38.1977 48.0482 38.2679 47.8705 38.3692 47.3528C38.5155 46.8315 38.5453 46.2848 38.4564 45.751C38.3676 45.2171 38.1623 44.7089 37.8549 44.2619C37.7633 44.1428 37.6455 44.046 37.5105 43.9791C37.3754 43.9121 37.2267 43.8767 37.0757 43.8755C36.9827 43.8899 36.8944 43.9253 36.8174 43.9789C36.7404 44.0325 36.6768 44.1028 36.6315 44.1846C36.5093 44.4229 36.4683 44.694 36.5146 44.9573C36.592 45.3636 36.7285 45.7567 36.9198 46.1241C36.9977 46.3637 37.0912 46.5646 37.177 46.7809Z" fill="#3F3930"/>
<path d="M42.5535 65.7513L42.2028 65.6818C41.632 65.4632 41.1045 65.1467 40.6444 64.7468C39.6937 63.8427 39.6937 62.7068 39.6937 61.6095V61.509C39.6937 60.3577 39.0626 59.7781 38.3301 59.1058C37.9714 58.7946 37.6403 58.4533 37.3405 58.0858C36.008 56.3858 36.8106 54.9486 37.8158 53.5036C38.1734 52.907 38.6414 52.3827 39.195 51.9581C39.4141 51.8068 39.6493 51.6799 39.8963 51.5795C39.7416 51.1782 39.6216 50.7646 39.5379 50.3431C39.3766 49.5814 39.3164 48.8021 39.3587 48.0249C39.4016 47.535 39.4956 47.0507 39.6392 46.5799C39.7171 46.1753 39.879 45.7911 40.1145 45.4518C40.093 45.3646 40.0643 45.2793 40.0288 45.1968C39.7842 44.6069 39.3729 44.0997 38.8444 43.7363C38.5234 43.5268 38.1844 43.3458 37.8314 43.1954C36.8418 42.7318 35.7197 42.2063 35.5872 41.3177C35.5697 40.9406 35.6502 40.5654 35.821 40.2281C35.8833 40.0659 35.9457 39.9113 35.9846 39.7799C36.117 39.3392 36.1723 38.8792 36.1483 38.4199C36.1276 38.2609 36.0964 38.1035 36.0548 37.9486C35.9842 37.6969 35.9475 37.4371 35.9457 37.1759C35.9804 36.7387 36.0802 36.309 36.2418 35.9009L36.3119 35.6922C36.5979 34.9306 36.7456 34.1249 36.7483 33.3122C36.0089 32.3402 35.4036 31.2748 34.9483 30.144C34.678 29.4334 34.3025 28.7667 33.834 28.1659C33.5034 27.8813 33.2922 27.4843 33.2418 27.0531C33.3159 26.556 33.4937 26.0797 33.7639 25.6545C34.1067 24.9359 34.3872 24.194 34.6911 23.4522C34.8527 22.8651 35.1928 22.3416 35.6652 21.9531C36.0314 21.6981 36.5457 21.6131 36.8574 21.3272C35.8911 20.7245 35.0652 22.2159 34.208 22.409C34.1871 21.8578 34.3102 21.3105 34.5655 20.8203C34.8209 20.3302 35.1997 19.9139 35.6652 19.6118C36.4444 19.009 37.3171 18.839 38.0963 18.3368C38.6558 17.9067 39.1 17.3467 39.3898 16.7063C39.6546 16.0434 39.9725 15.4025 40.3405 14.7899C40.9032 14.1458 41.6257 13.6584 42.4366 13.3759C43.995 12.7577 46.1301 12.1859 46.8236 10.4859V10.4086C46.6911 11.2509 44.8366 11.8845 44.1431 12.1318C43.1379 12.4795 42.1327 12.7422 41.1197 13.144C40.2859 13.4686 39.8574 14.3804 39.2028 15.0063C38.6817 15.6008 37.9681 15.997 37.1846 16.1268C37.8548 14.6586 39.5768 13.0359 38.4703 11.3049C37.7924 12.0081 37.582 13.3913 37.3015 14.2877C37.0565 14.9296 36.6644 15.5063 36.1561 15.9722C35.5901 16.6339 35.1278 17.3763 34.7846 18.1745C34.2703 19.1868 33.3898 19.8513 32.7665 20.7786C32.1431 21.7059 32.3768 22.5404 32.1976 23.5218C31.06 22.5559 31.4184 20.7245 30.4833 19.6195C30.0703 19.1404 29.7041 18.9549 29.7041 18.2981C29.6666 17.4035 29.9889 16.5307 30.6002 15.8718C31.2548 15.1763 32.3223 15.099 33.0158 14.4499C33.7093 13.8009 33.4911 12.8349 34.0444 12.1318C34.5286 11.6262 35.1563 11.2786 35.8444 11.1349C36.4926 10.9333 37.1033 10.6279 37.6522 10.2309C38.2911 9.78267 38.3613 9.29585 38.6574 8.61585C38.9275 8.1716 39.2984 7.79591 39.7405 7.51858C39.0626 7.18631 38.0496 8.8554 37.6288 9.25722C36.851 9.99483 35.8288 10.4261 34.7535 10.4704C34.1906 10.4125 33.6221 10.4976 33.1015 10.7177C32.9145 10.2231 32.9145 9.28813 32.3223 9.04858C32.3223 10.0918 33.1015 10.8877 32.8444 11.9463C32.6522 12.6259 32.2842 13.2439 31.7768 13.739C31.4033 14.1975 30.9943 14.6264 30.5535 15.0218C30.2043 14.3003 29.9428 13.5403 29.7742 12.7577C29.4158 11.7763 29.8366 11.2122 30.3431 10.3699C30.678 9.67371 30.8519 8.91204 30.8519 8.14062C30.8519 7.36921 30.678 6.60754 30.3431 5.91131C29.9984 5.13743 29.581 4.39749 29.0963 3.70131C28.9327 3.44631 28.7145 2.84358 28.4028 2.82812C28.3171 3.44631 28.8859 3.99494 29.182 4.55903C29.4781 5.12313 30.1716 6.45222 29.7041 7.05494C29.4626 6.82313 29.2989 6.44449 28.9639 6.35949C29.0262 6.71494 29.4236 7.03949 29.5483 7.42585C29.6822 8.01361 29.7347 8.61676 29.7041 9.21858C29.7041 10.1459 28.8002 10.6945 28.4807 11.5368C28.0989 12.5568 28.66 13.4609 28.4807 14.4963C28.3249 15.3849 27.7015 15.8563 27.9509 16.884C27.5195 16.0155 26.9972 15.1945 26.3924 14.4345C25.5509 13.6154 24.2963 13.3836 23.2755 12.889C22.2384 12.3595 21.4139 11.4956 20.9379 10.4395C20.6652 9.8754 20.3223 9.00222 19.6677 8.77812C19.8774 9.63698 20.2619 10.4443 20.7976 11.1504C21.103 11.6221 21.494 12.0335 21.9509 12.3636C22.2392 12.5799 22.7301 12.804 22.8548 13.1363C22.4729 12.9818 21.7093 12.4872 21.3665 12.8659C22.5913 13.2405 23.7601 13.7758 24.8418 14.4577C26.1509 15.4313 26.034 16.6522 26.4781 18.0277C26.8248 19.1288 27.4343 20.1308 28.2548 20.9486C28.8024 21.3912 29.3228 21.866 29.8132 22.3704C30.8496 23.599 30.7405 24.9436 31.0288 26.3963C30.6867 26.0494 30.3812 25.6688 30.1171 25.2604C30.0279 25.4294 29.9122 25.5833 29.7742 25.7163C29.6746 25.8233 29.5543 25.9092 29.4204 25.969C29.2865 26.0287 29.1418 26.0611 28.995 26.064H28.7768C28.6152 26.0299 28.4624 25.9629 28.3283 25.8671C28.1941 25.7713 28.0815 25.6489 27.9976 25.5077C27.7045 24.8536 27.6495 24.1189 27.8418 23.429L27.5846 23.2359C27.5369 23.3987 27.4797 23.5587 27.4132 23.7149C27.2604 24.0104 27.193 24.342 27.2184 24.6731C27.4402 25.5577 27.9496 26.3452 28.6678 26.914C29.0852 27.2134 29.5226 27.4844 29.9768 27.7254C30.8909 28.1479 31.6917 28.7779 32.3145 29.5645C33.2184 30.8549 33.3041 32.5086 33.3898 34.1004C33.3898 34.7031 33.4522 35.2827 33.5301 35.8313C33.5959 36.2209 33.6976 36.6038 33.834 36.9749C34.1038 37.5956 34.2213 38.2709 34.1768 38.9454C34.1379 39.2313 34.0444 39.6177 33.7483 39.7181H33.6703C33.3041 39.7181 32.9457 39.2004 32.5794 38.6131L32.5249 38.5204C32.1587 37.9331 31.8781 37.4695 31.6522 37.0599C31.5353 36.8436 31.434 36.6272 31.3405 36.4186C31.247 36.2099 31.1535 36.0245 31.0522 35.8313C30.7479 35.53 30.4047 35.2702 30.0314 35.0586L29.782 34.8963C29.9215 35.1887 29.9771 35.5136 29.9428 35.8352C29.9084 36.1569 29.7854 36.463 29.5872 36.7199C29.5042 36.8144 29.4026 36.8912 29.2888 36.9456C29.1749 37.0001 29.0512 37.0311 28.9249 37.0368H28.8314C28.208 36.9672 27.7093 36.1559 27.382 35.6149C27.382 35.5609 27.3119 35.499 27.2807 35.4527L27.2418 35.3909C27.0531 35.0085 26.762 34.685 26.4002 34.4559C26.1044 34.3385 25.7911 34.2707 25.4729 34.2549C25.3015 34.2549 25.1301 34.2549 24.9587 34.1931C24.3188 34.0945 23.7239 33.8063 23.2522 33.3663C22.8281 32.722 22.641 31.9524 22.7223 31.1872C22.7223 30.9786 22.7613 30.8009 22.7768 30.6231C22.8706 30.1863 22.8437 29.7324 22.6989 29.3095C22.5402 28.7743 22.2355 28.293 21.8184 27.9186C21.7467 27.8501 21.6713 27.7856 21.5924 27.7254C21.455 27.6602 21.3114 27.6084 21.1639 27.5709C20.0381 27.4356 18.9 27.4356 17.7742 27.5709C15.8885 27.5709 15.5768 25.9095 14.182 25.0672C13.0522 24.3872 11.6885 24.7736 10.4652 24.8277C9.19555 24.886 7.93561 24.5831 6.83398 23.9545C7.01321 24.874 8.64957 25.0595 9.35087 25.1909C10.0522 25.3222 12.4678 25.1909 12.8729 25.9249C12.4366 26.1181 11.821 25.809 11.4314 26.1568C11.7197 26.319 12.4132 26.1568 12.8106 26.2495C13.3174 26.3317 13.8071 26.4962 14.26 26.7363C15.1405 27.2618 15.1639 28.1504 15.7639 28.8613C16.5431 29.7654 17.9613 28.9927 18.9742 29.0081C19.5635 28.9973 20.1423 29.1625 20.6357 29.4822C21.129 29.8019 21.5139 30.2614 21.7405 30.8009C21.9898 31.674 21.8574 32.6322 22.3794 33.4049C22.6833 33.8531 24.3898 35.1513 24.2184 35.7231C24.047 36.2949 23.1353 36.0245 22.7535 36.0399C21.3275 36.0863 20.1119 36.8822 18.7015 36.3181C18.0236 36.0554 17.4548 35.6227 16.7924 35.329C16.247 35.0895 15.8885 35.0122 15.7405 34.4095C15.6538 33.7299 15.6018 33.0465 15.5846 32.3618C15.4677 31.589 15.0703 31.4731 14.4002 31.1872C13.7014 30.85 13.0514 30.4212 12.4678 29.9122C11.969 29.5259 11.4548 28.8999 10.7924 28.8072C11.1976 29.7654 12.7872 30.6695 13.6132 31.2799C13.995 31.5659 14.5716 31.7127 14.6807 32.2304C14.7898 32.7481 14.1509 33.2427 14.1353 33.7759C13.4652 33.7218 12.7249 32.8099 12.2028 32.3849C11.5252 31.836 10.762 31.4001 9.94307 31.0945C10.5887 31.9159 11.3811 32.6126 12.2807 33.1499C12.9275 33.6059 13.582 34.0695 14.2444 34.5254C14.6028 34.7727 15.6314 35.3754 14.8833 35.7309C14.5872 35.8777 13.9639 35.8158 13.5898 35.9704C13.027 36.2573 12.4496 36.5152 11.86 36.7431C10.9249 37.0136 8.62619 36.3645 8.19762 37.5159C10.0054 38.1727 11.9379 37.2068 13.6522 36.7431C14.4279 36.4377 15.292 36.4377 16.0678 36.7431C16.5665 37.0599 16.9716 37.6086 17.4703 37.9486C18.9197 38.9299 20.7742 37.7554 22.3327 37.9486C22.9938 38.1199 23.638 38.3501 24.2574 38.6363C24.9283 38.7444 25.6124 38.7444 26.2833 38.6363C26.7246 38.6573 27.1566 38.7699 27.5512 38.9669C27.9459 39.1639 28.2944 39.4409 28.5742 39.7799C31.2002 40.5527 33.4989 43.3809 34.5041 45.0886C35.6939 47.0191 36.2998 49.2479 36.2496 51.5099C36.1561 53.0554 35.1431 53.944 34.1613 54.8172C33.6235 55.2917 33.1425 55.8258 32.7275 56.409C32.2492 57.2528 32.0323 58.2178 32.1041 59.1831C32.0652 60.5818 32.0262 62.019 30.5067 62.8536C30.2294 63.0117 29.9149 63.0943 29.595 63.0931C28.8361 63.0189 28.109 62.7529 27.4833 62.3204C27.1828 62.1318 26.8456 62.008 26.4937 61.9572C25.2236 62.0345 24.6392 63.1936 23.7275 63.8581C23.1431 64.2754 22.7223 64.144 22.0755 64.2136C21.4288 64.2831 21.1093 64.8549 20.5171 65.1409C19.8803 65.3854 19.2109 65.5364 18.5301 65.589C18.1015 65.6586 17.1898 65.5195 16.9716 65.9213C17.3631 66.0178 17.7724 66.0178 18.1639 65.9213C18.6844 65.861 19.2115 65.8898 19.7223 66.0063C20.4138 66.0709 21.1084 66.0967 21.8028 66.0836C22.5674 66.0926 23.3313 66.0358 24.0859 65.9136C24.8106 65.8363 25.5587 65.7204 26.2833 65.6045C26.5872 65.5504 27.2807 65.2027 27.5535 65.5118C28.0132 66.0295 27.0314 65.9677 26.7742 66.0449C26.403 66.2118 26.046 66.4082 25.7067 66.6322C26.5429 66.8161 27.3985 66.8991 28.2548 66.8795C28.7817 66.7727 29.3021 66.636 29.8132 66.4699C29.8764 66.4253 29.9363 66.3762 29.9924 66.3231C30.4806 65.8854 30.8822 65.3613 31.1768 64.7777C31.3249 64.5227 31.4807 64.2677 31.6522 64.0049C32.0028 63.5027 32.8911 62.5599 33.7639 62.5986C34.6366 62.6372 34.9171 63.5104 35.1197 64.1981C35.1197 64.3527 35.2054 64.4995 35.2444 64.6231C35.4973 65.5641 36.0425 66.4022 36.8028 67.0186C36.9791 67.0342 37.1564 67.0342 37.3327 67.0186C37.5446 67.0475 37.7579 67.0655 37.9716 67.0727C38.7509 67.0727 39.6392 67.0186 40.4496 67.0263C41.26 67.034 42.2652 67.1036 43.2002 67.0263C43.9462 66.9977 44.6932 67.0469 45.4288 67.1731C45.834 67.2504 46.4028 67.4281 46.7223 67.0804C46.0288 66.3772 44.4859 66.8254 43.6054 66.4004C43.2859 66.1995 42.9197 65.9754 42.5535 65.7513ZM36.1639 45.0268C36.1079 44.6907 36.1654 44.3457 36.3275 44.0454C36.3955 43.9197 36.4922 43.8116 36.6099 43.7298C36.7277 43.6479 36.8631 43.5946 37.0054 43.574C37.2143 43.561 37.4231 43.5993 37.6134 43.6856C37.8038 43.7718 37.9696 43.9034 38.0963 44.0686C39.0703 45.1195 38.7976 46.8968 38.6963 47.4145C38.6418 47.7004 38.5093 48.334 37.9171 48.334H37.8002C37.2703 48.2568 37.021 47.5613 36.9119 47.1286C36.9119 47.0462 36.8885 46.9689 36.8418 46.8968C36.7639 46.6959 36.6703 46.5027 36.5768 46.294C36.3766 45.8942 36.2374 45.4671 36.1639 45.0268Z" fill="#3F3930"/>
<path d="M29.1348 61.6173C29.2449 61.6097 29.351 61.5736 29.4427 61.5126C29.5343 61.4515 29.6081 61.3678 29.6569 61.2696C29.7078 60.8109 29.5887 60.3495 29.3218 59.9714C29.139 60.3323 29.0204 60.7219 28.9712 61.1228C28.9213 61.292 28.8588 61.4573 28.7842 61.6173C28.9005 61.6328 29.0185 61.6328 29.1348 61.6173Z" fill="#3F3930"/>
<path d="M75.7066 47.0745H72.4728L72.1611 41.7272V39.4863H88.0027V41.7272L87.6988 47.09H84.4572V42.5H75.7066V47.0745ZM82.4235 29.5954H79.3066C78.9637 31.5195 78.8079 32.4854 78.4417 34.4327C77.5533 39.015 76.0417 41.6345 73.4468 41.7041L72.8936 39.4709C73.6105 39.2159 74.452 37.8172 75.1845 33.9613C75.7222 31.1718 75.9637 29.6109 76.517 26.5818H86.0391V41.395H82.4157L82.4235 29.5954Z" fill="#2A5436"/>
<path d="M90.1603 42.5L90.8149 39.4091C91.2003 39.5532 91.6111 39.6189 92.0227 39.6023C92.3295 39.6321 92.6385 39.5754 92.9142 39.4387C93.19 39.302 93.4211 39.0908 93.5811 38.8295L93.8149 38.3504L88.3604 26.605H92.2019L94.072 31.2413L95.4045 35.0432H95.5058L96.7837 31.2413L98.4746 26.605H102.114L97.1578 38.8991C96.1682 41.3177 94.711 42.7627 92.2019 42.7627C91.5107 42.8062 90.8175 42.717 90.1603 42.5Z" fill="#2A5436"/>
<path d="M103.875 26.5818H114.831V29.5954H107.506V32.7868H109.711C113.085 32.7868 115.867 33.9381 115.867 37.4231C115.867 41.0627 113.179 42.4691 109.813 42.4691H103.875V26.5818ZM109.439 39.7182C111.371 39.7182 112.322 39.0227 112.322 37.4927C112.322 35.9627 111.324 35.4527 109.415 35.4527H107.506V39.7182H109.439Z" fill="#2A5436"/>
<path d="M63.876 48.4343C63.876 48.6356 63.7639 48.7362 63.5396 48.7362C62.7064 48.7362 61.3392 48.6885 59.438 48.5932C57.6649 48.5085 56.2976 48.4767 55.3363 48.4979L54.1667 48.5138C53.419 48.5244 53.0238 48.5403 52.9811 48.5614C52.7675 48.6462 52.6607 48.9798 52.6607 49.5624V53.3915C52.6607 54.1118 52.8155 54.4719 53.1253 54.4719C54.1614 54.4719 55.7209 54.4243 57.8037 54.3289C59.8972 54.2336 61.4621 54.186 62.4981 54.186C62.7225 54.186 62.8346 54.2707 62.8346 54.4402C62.8346 54.6202 62.8186 54.8903 62.7865 55.2505C62.7652 55.6 62.7545 55.8648 62.7545 56.0449C62.7545 56.2356 62.7652 56.5268 62.7865 56.9188C62.8079 57.3001 62.8186 57.5861 62.8186 57.7767C62.8186 57.9038 62.7064 57.9674 62.4821 57.9674C61.7451 57.9674 60.6236 57.9462 59.1175 57.9038C57.6221 57.8615 56.5006 57.8403 55.7529 57.8403C54.375 57.8403 53.5953 57.8509 53.4137 57.8721C52.933 57.925 52.6927 58.121 52.6927 58.4599C52.6927 59.4133 52.7194 60.8432 52.7728 62.7498C52.8262 64.6564 52.8529 66.0864 52.8529 67.0397C52.8529 67.3575 52.7247 67.5164 52.4684 67.5164C52.2548 67.5164 51.9343 67.4952 51.5071 67.4528C51.0905 67.3998 50.7701 67.3734 50.5458 67.3734C50.3642 67.3734 50.0865 67.3893 49.7126 67.421C49.3388 67.4528 49.0611 67.4687 48.8795 67.4687C48.6124 67.4687 48.4789 67.3522 48.4789 67.1192C48.4789 65.9434 48.527 64.1745 48.6231 61.8124C48.7299 59.4503 48.7833 57.6814 48.7833 56.5057C48.7833 55.4147 48.6712 51.8662 48.4469 45.8604V45.6539C48.4362 45.4314 48.5697 45.3043 48.8474 45.2725C48.9329 45.2725 49.6111 45.2884 50.8822 45.3202C52.5592 45.352 54.1133 45.3573 55.5446 45.3361C57.4779 45.3149 59.94 45.209 62.9307 45.0183C63.3366 44.9865 63.5663 45.1613 63.6197 45.5426C63.609 45.8286 63.6304 46.2629 63.6838 46.8455C63.8119 47.6611 63.876 48.1907 63.876 48.4343Z" fill="#3F3930"/>
<path d="M69.9964 45.4314L69.9804 45.638C69.7454 49.5783 69.6279 52.9625 69.6279 55.7907C69.6279 57.0512 69.6493 58.9419 69.692 61.4629C69.7347 63.9732 69.7561 65.8534 69.7561 67.1033C69.7561 67.3469 69.6706 67.4687 69.4997 67.4687H66.4396C66.2473 67.4687 66.1512 67.3469 66.1512 67.1033C66.1512 65.8534 66.1618 63.9732 66.1832 61.4629C66.2046 58.9419 66.2152 57.0512 66.2152 55.7907C66.2152 54.6467 66.1565 52.9308 66.039 50.6428C65.9322 48.3443 65.8788 46.6283 65.8788 45.495C65.8788 45.2831 65.9909 45.1772 66.2152 45.1772C66.4075 45.1772 66.6959 45.1931 67.0804 45.2249C67.465 45.2566 67.7534 45.2725 67.9456 45.2725C68.1486 45.2725 68.4476 45.2566 68.8428 45.2249C69.2381 45.1931 69.5318 45.1772 69.7241 45.1772C69.9163 45.1772 70.0071 45.2619 69.9964 45.4314Z" fill="#3F3930"/>
<path d="M87.7007 59.731C87.7007 61.9448 86.969 63.8355 85.5057 65.4032C84.0103 67.0238 82.1571 67.8341 79.9461 67.8341C77.7244 67.8341 75.8658 67.0291 74.3704 65.4191C72.9071 63.862 72.1754 61.9766 72.1754 59.7628C72.1754 57.549 72.9071 55.6636 74.3704 54.1065C75.8765 52.5177 77.735 51.7232 79.9461 51.7232C82.1464 51.7232 83.9943 52.5177 85.4897 54.1065C86.9637 55.653 87.7007 57.5278 87.7007 59.731ZM84.3201 59.7628C84.3201 58.4705 83.9195 57.3689 83.1184 56.458C82.2853 55.4941 81.2278 55.0122 79.9461 55.0122C78.6643 55.0122 77.6015 55.4888 76.7577 56.4421C75.9566 57.3636 75.5561 58.4705 75.5561 59.7628C75.5561 61.0339 75.9619 62.1355 76.7737 63.0676C77.6282 64.0527 78.6857 64.5452 79.9461 64.5452C81.2171 64.5452 82.2746 64.0527 83.1184 63.0676C83.9195 62.1355 84.3201 61.0339 84.3201 59.7628Z" fill="#3F3930"/>
<path d="M104.492 59.731C104.492 61.9448 103.76 63.8355 102.297 65.4032C100.801 67.0238 98.9481 67.8341 96.7371 67.8341C94.5154 67.8341 92.6568 67.0291 91.1614 65.4191C89.6981 63.862 88.9664 61.9766 88.9664 59.7628C88.9664 57.549 89.6981 55.6636 91.1614 54.1065C92.6675 52.5177 94.5261 51.7232 96.7371 51.7232C98.9374 51.7232 100.785 52.5177 102.281 54.1065C103.755 55.653 104.492 57.5278 104.492 59.731ZM101.111 59.7628C101.111 58.4705 100.711 57.3689 99.9094 56.458C99.0763 55.4941 98.0188 55.0122 96.7371 55.0122C95.4553 55.0122 94.3925 55.4888 93.5487 56.4421C92.7476 57.3636 92.3471 58.4705 92.3471 59.7628C92.3471 61.0339 92.753 62.1355 93.5647 63.0676C94.4193 64.0527 95.4767 64.5452 96.7371 64.5452C98.0082 64.5452 99.0656 64.0527 99.9094 63.0676C100.711 62.1355 101.111 61.0339 101.111 59.7628Z" fill="#3F3930"/>
<path d="M115.931 52.5494C115.931 53.7146 115.851 54.7738 115.691 55.7271C115.659 55.9708 115.552 56.0926 115.371 56.0926C115.146 56.0926 114.805 56.0714 114.345 56.029C113.897 55.976 113.555 55.9496 113.32 55.9496C111.974 55.9496 111.114 56.3256 110.74 57.0776C110.516 57.5331 110.404 58.4811 110.404 59.9217V61.6694C110.404 62.2626 110.425 63.1629 110.468 64.3704C110.521 65.578 110.548 66.4783 110.548 67.0715C110.548 67.3575 110.425 67.5005 110.18 67.5005C109.848 67.5005 109.346 67.4952 108.673 67.4846C108.001 67.474 107.499 67.4687 107.167 67.4687C106.922 67.4687 106.799 67.3363 106.799 67.0715C106.799 66.2135 106.81 64.9212 106.831 63.1947C106.863 61.4682 106.879 60.1706 106.879 59.302C106.879 56.6857 106.633 54.5832 106.142 52.9943C106.121 52.9096 106.11 52.846 106.11 52.8037C106.11 52.6765 106.179 52.5865 106.318 52.5336C106.713 52.4912 107.269 52.4276 107.985 52.3429C109.138 52.131 109.672 52.0251 109.587 52.0251C109.758 52.0251 109.87 52.3376 109.923 52.9625C109.977 53.5875 110.073 53.9 110.212 53.9C110.233 53.9 110.26 53.8894 110.292 53.8682C110.73 53.5928 111.168 53.3174 111.605 53.042C112.086 52.756 112.577 52.5441 113.08 52.4064C113.496 52.2793 114.03 52.2158 114.682 52.2158C115.515 52.2158 115.931 52.327 115.931 52.5494Z" fill="#3F3930"/>
</svg>
